<?xml version="1.0" encoding="utf-8"?>
<!-- Generator: Adobe Illustrator 19.0.0, SVG Export Plug-In . SVG Version: 6.00 Build 0)  -->
<svg version="1.1" id="Layer_1" xmlns="http://www.w3.org/2000/svg" xmlns:xlink="http://www.w3.org/1999/xlink" x="0px" y="0px"
	 viewBox="0 0 597.6230469 402.844696" enable-background="new 0 0 597.6230469 402.844696" xml:space="preserve">
<g>
	<g>
		<path fill="#654321" d="M298.8115234,401.844696c-33.4121094,0-66.4873047-8.4189453-95.6494141-24.3476563l-0.2241211-0.1220703
			H37.6333008c-0.5214844-20-16.6665039-36.1708984-36.6333008-36.6953125v-97.7978516
			c19.9667969-0.5244141,36.1118164-16.6953125,36.6333008-36.6943359h61.2041016l-0.0180664-1.0175781
			c-0.0092773-0.5175781-0.0268555-1.0327148-0.0439453-1.5473633c-0.0249023-0.7314453-0.0498047-1.4624023-0.0498047-2.2001953
			c0-110.5131912,89.7583008-200.4223633,200.0859375-200.4223633c110.3291016,0,200.0878906,89.9091797,200.0878906,200.4223633
			c0,0.7504883-0.0253906,1.4931641-0.0517578,2.2373047c-0.0166016,0.5014648-0.0341797,1.003418-0.0439453,1.5083008
			l-0.0195313,1.0195313h61.2050781c0.5214844,19.9990234,16.6669922,36.1699219,36.6337891,36.6943359v97.7978516
			c-19.9667969,0.5244141-36.1123047,16.6953125-36.6337891,36.6953125H394.6845703l-0.2246094,0.1220703
			C365.2988281,393.4257507,332.2246094,401.844696,298.8115234,401.844696z"/>
		<path fill="#FFFFFF" d="M298.8115234,1.9999795c26.8771667,0,52.9493103,5.2722168,77.492218,15.670105
			c23.7069397,10.0438232,44.9983826,24.4228535,63.2829285,42.737793
			c18.2848511,18.3151817,32.6403809,39.6423912,42.6677856,63.38937
			c10.3812256,24.584877,15.644989,50.7017899,15.644989,77.6251907c0,0.727356-0.0246277,1.4439087-0.0506897,2.2026062
			c-0.0174561,0.5068359-0.0347595,1.0140076-0.0446777,1.5236206l-0.0396423,2.0388489h2.0392456h59.2237854
			c1.0089722,19.7532043,16.8737183,35.6433411,36.5955811,36.6557922v95.8749237
			c-19.7218628,1.0124817-35.5866089,16.9030151-36.5955811,36.6567383H394.9394531h-0.5106201l-0.4481506,0.244751
			c-29.0144043,15.8481445-61.9234009,24.2250061-95.1691589,24.2250061c-33.2449341,0-66.1542358-8.3768616-95.1702271-24.2250061
			l-0.4480743-0.244751h-0.5106201H38.5955734c-1.0089417-19.7537231-16.8737106-35.6442566-36.5955887-36.6567383v-95.8749237
			c19.7218781-1.0124512,35.586647-16.9025879,36.5955849-36.6557922h59.2237968h2.0361557l-0.0364609-2.0357971
			c-0.0093842-0.5221252-0.0268478-1.041687-0.0443802-1.5609741c-0.025238-0.7468567-0.0490799-1.4523315-0.0490799-2.1683044
			c0-26.9234009,5.2637711-53.0402527,15.6450729-77.6251907c10.0274658-23.7469177,24.3829269-45.0741882,42.667778-63.389431
			c18.2844543-18.3148804,39.5757599-32.6938477,63.2823792-42.7377319
			C245.8634491,7.2721963,271.9350586,1.9999795,298.8115234,1.9999795 M298.8115234-0.0000205
			c-111.0546875,0-201.0859222,90.178772-201.0859222,201.4224548c0,1.2630615,0.071228,2.5062866,0.0937653,3.7650757H36.6465225
			c0,20.272522-16.4067688,36.7070007-36.6465378,36.7070007v99.7725067c20.239769,0,36.6465378,16.4354553,36.6465378,36.7079468
			h166.0360718c28.5591583,15.5986023,61.3100128,24.4697571,96.1289215,24.4697571
			c34.8213196,0,67.5703125-8.8711548,96.1279297-24.4697571h166.0370483c0-20.2724915,16.4072266-36.7079468,36.6465454-36.7079468
			V241.894516c-20.2393188,0-36.6465454-16.4344788-36.6465454-36.7070007h-61.172821
			c0.0244446-1.2587891,0.0957642-2.5020142,0.0957642-3.7650757
			C499.8994446,90.1787491,409.8691406-0.0000205,298.8115234-0.0000205L298.8115234-0.0000205z M36.6465225,378.3749695H8.4575233
			H36.6465225L36.6465225,378.3749695z"/>
	</g>
	<polygon fill="#654321" points="114.7353287,201.7587891 95.4472351,221.9179993 88.6723328,215.414093 107.960434,195.253891 	"/>
	<polygon fill="#654321" points="510.0976257,215.414093 490.8105164,195.253891 484.0332336,201.7587891 503.3222351,221.9179993 	
		"/>
	<path fill="#FDF8C1" d="M298.8115234,385.9032898c-30.7612,0-61.1967926-7.743103-88.0292969-22.4023132l-8.0995941-2.0634766
		H50.8271332c-5.3188019-15.9854126-17.9603996-28.6455078-33.9160004-33.976593v-71.359314
		c15.9506989-5.3330994,28.591301-17.9960938,33.9160004-33.9716949h46.9922028l16.9135971-17.256897l-0.0547028-1.7656097
		c-0.0170975-0.5625-0.0385971-1.1166992-0.0385971-1.6849976c0-101.7216949,82.6201019-184.4799957,184.1718903-184.4799957
		s184.1748047,82.7583008,184.1748047,184.4799957c0,0.5682983-0.0244141,1.1224976-0.0419922,1.6849976l-0.0537109,1.7656097
		l16.9130859,17.256897h46.9921875c5.3271484,15.9756012,17.9658203,28.6385956,33.9169922,33.9716949v71.359314
		c-15.9579468,5.3310852-28.5947876,17.9911804-33.9169922,33.976593H394.9394226l-8.0986023,2.0634766
		C360.0117188,378.1601868,329.5722351,385.9032898,298.8115234,385.9032898L298.8115234,385.9032898z"/>
	<path fill="#251815" d="M298.8144226,380.257782c-29.8192749,0-59.3251953-7.5106812-85.3348999-21.719696l-1.3076935-0.5147095
		l-8.0926971-2.0585938l-1.391098-0.1708984H54.7363319c-6.0014992-14.5458984-17.6679993-26.2323914-32.1898994-32.2489929
		v-63.531189c14.5161018-6.0186157,26.1831017-17.7051086,32.1898994-32.2373047h43.083004l4.0243912-1.6875l16.9136047-17.2588043
		l1.6088943-4.128891h356.8886719l1.609314,4.128891l16.9130859,17.2588043l4.0263977,1.6875h43.0830078
		c6.0126953,14.532196,17.6787109,26.218689,32.1875,32.2373047v63.531189
		c-14.5126953,6.0166016-26.1807251,17.7080078-32.1875,32.2489929H394.9394226l-1.3837891,0.1708984l-8.0986023,2.0585938
		l-1.3164063,0.5147095C358.1367188,372.7471008,328.6308289,380.257782,298.8144226,380.257782L298.8144226,380.257782z"/>
	<polygon fill="#251815" points="466.2558289,204.722702 477.7539063,205.2012024 500.3027344,228.2763977 493.210907,248.7226868 
		471.2480164,231.7226868 	"/>
	<polygon fill="#251815" points="129.5693359,204.472702 120.3174286,204.7012024 97.7690353,227.7763977 104.8608322,248.2226868 
		126.8237305,231.2226868 	"/>
</g>
<g>
	<path fill="#FFFFFF" d="M69.3935547,333.1445007v-49.4580078c0-1.0888672,0.3608398-2.0058594,1.0844727-2.75
		c0.7231445-0.7431641,1.6074219-1.1152344,2.6523438-1.1152344h16.3530273c1.0439453,0,2.0351563,0.3720703,2.9726563,1.1152344
		c0.9379883,0.7441406,1.5673828,1.6347656,1.8886719,2.6708984l11.8535156,34.0341797l11.8657227-34.0341797
		c0.3217773-1.0361328,0.9521484-1.9267578,1.890625-2.6708984c0.9384766-0.7431641,1.9301758-1.1152344,2.9765625-1.1152344
		h16.3710938c1.0454102,0,1.9233398,0.3720703,2.6342773,1.1152344c0.7109375,0.7441406,1.0664063,1.6611328,1.0664063,2.75
		v49.4580078c0,1.0898438-0.3745117,2-1.1230469,2.7304688s-1.6538086,1.0957031-2.7148438,1.0957031h-7.3491211
		c-1.0620117,0-1.9667969-0.3652344-2.715332-1.0957031c-0.7480469-0.7304688-1.1225586-1.640625-1.1225586-2.7304688v-38.9365234
		l-14.0551758,39.1757813c-0.3725586,0.9833984-1.0224609,1.8271484-1.9516602,2.53125s-1.9111328,1.0556641-2.9458008,1.0556641
		h-5.6943359c-1.0356445,0-2.0112305-0.3515625-2.9267578-1.0556641c-0.9150391-0.7041016-1.5722656-1.5478516-1.9707031-2.53125
		l-14.015625-39.1757813v38.9365234c0,1.0898438-0.3735352,2-1.1196289,2.7304688
		c-0.746582,0.7304688-1.6489258,1.0957031-2.7075195,1.0957031h-7.3291016c-1.0585938,0-1.9682617-0.3652344-2.7280273-1.0957031
		C69.7734375,335.1445007,69.3935547,334.2343445,69.3935547,333.1445007z"/>
	<path fill="#FFFFFF" d="M148.7617188,334.4042664l7.0019531-26.5585938
		c1.8969727-7.234375,8.0717773-10.8613281,18.5244141-10.8798828h15.0366211c0.6879883,0,1.2597656,0.2607422,1.7158203,0.78125
		c0.4555664,0.5205078,0.6835938,1.1259766,0.6835938,1.8134766v34.84375c0,0.7255859-0.2607422,1.3349609-0.78125,1.8271484
		c-0.5209961,0.4931641-1.144043,0.7392578-1.8691406,0.7392578h-5.2446289c-0.7626953,0-1.390625-0.2460938-1.8833008-0.7392578
		c-0.4926758-0.4921875-0.7392578-1.1201172-0.7392578-1.8828125v-7.0302734h-19.7607422l-1.8833008,7.0458984
		c-0.1875,0.7578125-0.6079102,1.3818359-1.262207,1.8710938c-0.6547852,0.4902344-1.3466797,0.7353516-2.0756836,0.7353516
		h-5.5263672c-0.7299805,0-1.28125-0.2509766-1.6552734-0.7529297c-0.2617188-0.3349609-0.3925781-0.7158203-0.3925781-1.1445313
		C148.668457,334.8691101,148.7060547,334.6464539,148.7617188,334.4042664z M163.5551758,319.422821h17.6513672v-14.5625
		h-7.9223633c-1.7792969,0-3.3310547,0.5087891-4.65625,1.5244141c-1.3251953,1.0166016-2.2197266,2.3828125-2.6826172,4.0976563
		L163.5551758,319.422821z"/>
	<path fill="#FFFFFF" d="M196.4101563,334.6269226l7.0864258-26.78125
		c1.8969727-7.234375,8.0620117-10.8613281,18.4956055-10.8798828h13.9487305c0.6508789,0,1.2041016,0.2695313,1.6601563,0.8095703
		c0.4555664,0.5390625,0.6831055,1.1533203,0.6831055,1.8408203v34.7324219c0,0.7246094-0.246582,1.34375-0.7392578,1.8544922
		c-0.4926758,0.5117188-1.1015625,0.7675781-1.8271484,0.7675781h-5.328125c-0.7255859,0-1.3442383-0.2558594-1.8554688-0.7675781
		c-0.5117188-0.5107422-0.7670898-1.1298828-0.7670898-1.8544922V304.860321h-6.7807617
		c-1.7783203,0-3.3305664,0.5087891-4.6552734,1.5244141c-1.3242188,1.0166016-2.2182617,2.3828125-2.6816406,4.0976563
		l-6.3769531,23.8837891c-0.1875,0.7568359-0.6083984,1.3808594-1.2631836,1.8701172
		c-0.6547852,0.4902344-1.347168,0.734375-2.0766602,0.734375h-5.6977539c-0.6547852,0-1.159668-0.2412109-1.515625-0.7255859
		c-0.2617188-0.3349609-0.3925781-0.6972656-0.3925781-1.0878906
		C196.3447266,334.9902039,196.3730469,334.813446,196.4101563,334.6269226z"/>
	<path fill="#FFFFFF" d="M281.4091797,331.070282c-5.4462891-4.7568359-8.1699219-12.3085938-8.1699219-22.6542969
		s2.7236328-17.8974609,8.1699219-22.6552734c5.4462891-4.7568359,13.4238281-7.1357422,23.9326172-7.1357422
		c10.5078125,0,18.4785156,2.3789063,23.9121094,7.1357422c5.4326172,4.7578125,8.1503906,12.3095703,8.1503906,22.6552734
		s-2.7177734,17.8974609-8.1503906,22.6542969c-5.4335938,4.7578125-13.4042969,7.1357422-23.9121094,7.1357422
		C294.8330078,338.2060242,286.8554688,335.8280945,281.4091797,331.070282z M292.3095703,294.172821
		c-2.6972656,3.1923828-4.0449219,7.9462891-4.0449219,14.2626953s1.3476563,11.0644531,4.0449219,14.2431641
		c2.6962891,3.1777344,7.0400391,4.7666016,13.0322266,4.7666016c5.9912109,0,10.328125-1.5888672,13.0117188-4.7666016
		c2.6835938-3.1787109,4.0253906-7.9267578,4.0253906-14.2431641s-1.3417969-11.0703125-4.0253906-14.2626953
		c-2.6835938-3.1914063-7.0205078-4.7871094-13.0117188-4.7871094
		C299.3496094,289.3857117,295.0058594,290.9814148,292.3095703,294.172821z"/>
	<path fill="#FFFFFF" d="M339.8632813,334.3486023v-2.6787109c0-0.7246094,0.2539063-1.3388672,0.7626953-1.8408203
		c0.5078125-0.5019531,1.1230469-0.7529297,1.84375-0.7529297h2.1640625l5.1884766-21.1191406
		c1.7861328-7.3085938,7.8359375-10.9726563,18.1474609-10.9912109h15.0761719c0.7255859,0,1.3447266,0.2509766,1.8564453,0.7529297
		c0.5117188,0.5029297,0.7685547,1.1162109,0.7685547,1.8417969v34.84375c0,0.7255859-0.2558594,1.3349609-0.7675781,1.8271484
		c-0.5117188,0.4931641-1.1298828,0.7392578-1.8554688,0.7392578h-40.5625c-0.7255859,0-1.34375-0.2558594-1.8554688-0.7675781
		C340.1181641,335.6923523,339.8632813,335.0732117,339.8632813,334.3486023z M355.4628906,329.0761414h19.6904297V304.860321
		h-8.2958984c-1.7392578,0-3.1865234,0.4863281-4.3417969,1.4570313c-1.15625,0.9707031-1.9472656,2.3242188-2.3730469,4.0595703
		L355.4628906,329.0761414z"/>
	<path fill="#FFFFFF" d="M393.6210938,334.2929382v-34.6210938c0-0.7626953,0.2529297-1.4042969,0.7597656-1.9248047
		c0.5058594-0.5205078,1.125-0.78125,1.8564453-0.78125h11.4472656c0.7304688,0,1.4238281,0.2607422,2.0800781,0.78125
		c0.6572266,0.5205078,1.0976563,1.1435547,1.3222656,1.8691406l8.2978516,23.8242188l8.3056641-23.8242188
		c0.2255859-0.7255859,0.6669922-1.3486328,1.3232422-1.8691406c0.6572266-0.5205078,1.3515625-0.78125,2.0839844-0.78125
		h11.4599609c0.7314453,0,1.3457031,0.2607422,1.84375,0.78125c0.4970703,0.5205078,0.7460938,1.1621094,0.7460938,1.9248047
		v34.6210938c0,0.7626953-0.2617188,1.3994141-0.7851563,1.9101563c-0.5244141,0.5117188-1.1582031,0.7675781-1.9013672,0.7675781
		h-5.1445313c-0.7431641,0-1.3759766-0.2558594-1.9003906-0.7675781c-0.5234375-0.5107422-0.7851563-1.1474609-0.7851563-1.9101563
		v-27.2558594l-9.8388672,27.4228516c-0.2607422,0.6884766-0.7158203,1.2792969-1.3662109,1.7714844
		c-0.6503906,0.4931641-1.3378906,0.7392578-2.0625,0.7392578h-3.9853516c-0.7255859,0-1.4082031-0.2460938-2.0488281-0.7392578
		c-0.640625-0.4921875-1.1005859-1.0830078-1.3798828-1.7714844l-9.8105469-27.4228516v27.2558594
		c0,0.7626953-0.2617188,1.3994141-0.7841797,1.9101563c-0.5224609,0.5117188-1.1542969,0.7675781-1.8945313,0.7675781h-5.1308594
		c-0.7412109,0-1.3779297-0.2558594-1.9101563-0.7675781C393.8867188,335.6923523,393.6210938,335.0556335,393.6210938,334.2929382z
		"/>
	<path fill="#FFFFFF" d="M456.1123047,332.8407898c-3.8125-3.3300781-5.71875-8.6162109-5.71875-15.8583984
		s1.90625-12.5283203,5.71875-15.8583984s9.3964844-4.9951172,16.7519531-4.9951172s12.9355469,1.6650391,16.7392578,4.9951172
		c3.8027344,3.3300781,5.7041016,8.6162109,5.7041016,15.8583984s-1.9013672,12.5283203-5.7041016,15.8583984
		c-3.8037109,3.3300781-9.3837891,4.9951172-16.7392578,4.9951172S459.9248047,336.1708679,456.1123047,332.8407898z
		 M463.7421875,307.0126648c-1.8876953,2.234375-2.8320313,5.5615234-2.8320313,9.9833984s0.9443359,7.7451172,2.8320313,9.9697266
		s4.9277344,3.3369141,9.1220703,3.3369141s7.2304688-1.1123047,9.1083984-3.3369141
		c1.8789063-2.2246094,2.8183594-5.5478516,2.8183594-9.9697266s-0.9394531-7.7490234-2.8183594-9.9833984
		c-1.8779297-2.234375-4.9140625-3.3515625-9.1083984-3.3515625S465.6298828,304.7782898,463.7421875,307.0126648z"/>
	<path fill="#FFFFFF" d="M500.9990234,334.3486023v-34.7324219c0-0.7255859,0.2509766-1.3486328,0.7529297-1.8691406
		c0.5029297-0.5205078,1.1162109-0.78125,1.8417969-0.78125h21.2851563c11.2333984,0,16.8544922,5.1845703,16.8642578,15.5527344
		c0.0097656,10.3691406-5.6123047,15.5527344-16.8642578,15.5527344h-13.3623047v6.2773438
		c0,0.7246094-0.2558594,1.34375-0.7675781,1.8544922c-0.5117188,0.5117188-1.1298828,0.7675781-1.8544922,0.7675781h-5.2451172
		c-0.7255859,0-1.3486328-0.2558594-1.8691406-0.7675781C501.2597656,335.6923523,500.9990234,335.0732117,500.9990234,334.3486023z
		 M511.5166016,320.1767273h10.1826172c3.1240234,0,5.4951172-0.5253906,7.1132813-1.5761719
		s2.4277344-3.078125,2.4277344-6.0820313c0-3.0029297-0.8095703-5.0302734-2.4277344-6.0820313
		c-1.6181641-1.0498047-3.9892578-1.5761719-7.1132813-1.5761719h-10.1826172V320.1767273z"/>
</g>
<g>
	<path d="M325.8536072,71.8746796c-0.240387,1.9572067-0.4572754,3.8750992-0.7156677,5.7873993
		c-0.2824097,2.0908051-0.5894165,4.1786041-0.9191284,6.2625046c-0.0632019,0.3988953,0.0375061,0.5917969,0.3792114,0.7715836
		c2.069397,1.0890045,4.1802979,2.1119156,6.1767883,3.3226166c1.6434021,0.9965973,3.2008057,2.1568985,4.6987,3.3656006
		c1.5645142,1.2624969,3.0462036,2.634201,4.4985962,4.0264969c0.9193115,0.8812866,1.7478333,1.8632889,2.5640259,2.8442001
		c0.9399719,1.1297989,1.8506775,2.2870026,2.7184753,3.4729996c0.5870972,0.8022995,1.1251221,1.6492996,1.6018982,2.521698
		c0.8214111,1.5026016,1.6664124,3.0028992,2.3382263,4.5739059c0.7493896,1.7526932,1.3882751,3.5612946,1.9481812,5.3845978
		c1.1479187,3.7372971,1.9210205,7.5623016,1.9913025,11.4793015c0.0625,3.4818039,0.071991,6.9748001-0.1402893,10.4478989
		c-0.1508179,2.465683-0.6126099,4.9263916-1.112915,7.3527985c-0.5083008,2.4653015-1.1589966,4.9084015-1.8900757,7.3179932
		c-0.5152283,1.6977997-1.2371216,3.3367004-1.9267273,4.9766083c-0.512085,1.2175903-1.0692749,2.4223938-1.6980896,3.5832825
		c-0.9072876,1.6753082-1.8388977,3.3435211-2.8692932,4.9444122c-1.0077209,1.5657043-2.0988159,3.0855865-3.2527161,4.5471039
		c-1.0406799,1.3179932-2.1732788,2.5711975-3.3437805,3.7767944c-1.1685181,1.2036896-2.3739014,2.3872986-3.6735229,3.4440002
		c-1.5090942,1.2268982-3.0880737,2.3852997-4.7296753,3.427002c-1.6237183,1.0303955-3.32901,1.9492035-5.0625,2.7841034
		c-1.4606934,0.7035828-3.0028076,1.2451019-4.5289001,1.8034973c-0.9359131,0.3423004-1.9096069,0.5812073-2.8663025,0.8666992
		c-5.3448181,1.5955963-10.7991943,1.8853912-16.305603,1.2462006c-1.6423035-0.1907043-3.2503052-0.6772003-4.8186035-1.0162048
		c1.658905,0,3.3482971,0.0446014,5.0344849-0.010788c2.3560181-0.0774078,4.6957092-0.3409119,6.9210205-1.1788177
		c2.0258789-0.7628937,3.8414001-1.8746948,5.103302-3.6811829c1.1559753-1.6549988,1.5204773-3.5256042,1.22229-5.5270996
		c-0.4284973-2.8771057-2.0751038-4.9737244-4.334198-6.6312103c-1.2193909-0.8946991-2.5816956-1.5935974-3.8105164-2.4768982
		c-1.9760742-1.4203949-3.8284912-2.9660034-5.262085-4.9936066c-1.899292-2.6862946-2.5806885-5.7166901-2.7421875-8.9008942
		c-0.1755066-3.4615021,0.2919006-6.8621063,1.2136841-10.2032928c0.8595886-3.1156006,2.1100159-6.0508118,3.8311157-8.7966003
		c1.2684021-2.0236053,2.7299805-3.8682098,4.4629822-5.5112991c2.0359192-1.9300995,4.3403931-3.3796005,6.9761047-4.3811035
		c1.8931885-0.7192993,3.1173096-2.1947021,3.9361877-4.0768967c0.7784119-1.789299,1.0464172-3.6380005,0.9815063-5.5386047
		c-0.0697021-2.0407944-0.4217834-4.0429993-1.7688904-5.6893082c-1.0718079-1.3097916-2.4852905-1.6998901-3.8648071-0.8698883
		c-0.7233887,0.4353027-1.4585876,0.851799-2.172699,1.3018875c-1.3381958,0.8435135-2.9508057,0.8102112-4.1540833-0.4683914
		c-0.5137024-0.5458984-0.8693237-1.2376099-1.3372192-1.8311996c-0.1618958-0.2052994-0.4483948-0.4501953-0.6741943-0.4464951
		c-3.2010803,0.0522995-6.4080811,0.0518951-9.5986938,0.2767944c-1.1202087,0.0790024-2.212616,0.7022934-3.2947083,1.1346054
		c-1.5868835,0.6339951-3.1481018,1.3322983-4.7337036,1.9696884c-0.2388916,0.0961075-0.5505981,0.010994-0.8287048,0.009407
		c-0.5152893-0.0028992-0.8075867-0.3659973-0.808197-0.774498c-0.0004883-0.3329163,0.2131958-0.8365021,0.4792175-0.9692001
		c1.0431824-0.5205994,2.118103-1.012001,3.2312927-1.348999c1.3695984-0.4144974,2.7918091-0.6532974,4.1865845-0.9874039
		c2.0554199-0.4923096,4.1175232-0.2929001,6.1776123-0.0723953c1.6658936,0.1783981,3.3275146,0.3973999,4.9914856,0.5940857
		c0.1455078,0.0171127,0.2947083,0.0022125,0.5035095,0.0022125c-0.4592896-1.0299988-0.8800964-2.026001-1.3439941-3.0016022
		c-0.6601868-1.388298-1.3128967-2.7826996-2.0407104-4.1357956c-0.8531799-1.5864029-2.2368774-2.7024002-3.6221924-3.7916031
		c-1.0903931-0.8572998-2.2582092-1.5649948-3.603302-2.0129013c-2.1710815-0.7227936-4.3085938-0.565094-6.4147034,0.1116028
		c-1.6455994,0.5286026-3.3060913,1.0968018-4.8276978,1.8985977c-1.2280884,0.6472015-2.3352966,1.5876999-3.3552856,2.5478058
		c-1.0514221,0.9896851-1.9794006,2.123497-2.8752136,3.2621994c-0.9472961,1.2042007-1.7846069,2.4945984-2.6858826,3.7357941
		c-0.6231995,0.8580017-1.2763977,1.6942062-1.9095154,2.545105c-0.1366882,0.1835861-0.2450867,0.3881989-0.3901978,0.6212997
		c1.2179871,0.1124954,2.3601074,0.1936951,3.4953918,0.3311005c0.8365173,0.1011887,1.4595947,0.5602951,1.7878113,1.3488007
		c0.0730896,0.175499,0.0935059,0.4845963-0.0092163,0.593895c-0.1316833,0.1404037-0.4127808,0.1902008-0.6285706,0.1879044
		c-0.207428-0.0021057-0.4137268-0.1202011-0.6204224-0.1878052c-0.7357788-0.2406998-1.4566956-0.5636063-2.2113037-0.7010956
		c-0.8798828-0.1604004-1.6013794-0.5014038-2.0563965-1.1075134c-0.8182983,0.7595139-1.6246033,1.5337143-2.4585876,2.2770004
		c-2.0386963,1.8170013-4.4017029,2.7801132-7.1629944,2.7868118c-2.0867004,0.0050964-4.0543213-0.4392014-5.6987-1.7039032
		c-0.9187164-0.7065964-1.7452087-1.6596985-2.3130035-2.6703949c-1.2942047-2.3037033-1.7330933-4.8558044-1.6518097-7.493515
		c0.0027161-0.0856857,0.0239105-0.1710892,0.0419006-0.2554855c0.0026093-0.0121002,0.0359039-0.0177002,0.0399017-0.019516
		c0.4627991,1.0806122,0.8493958,2.2024155,1.4048004,3.2332153c1.0373077,1.9252014,2.5484009,3.2945023,4.8439941,3.4869995
		c2.4848022,0.2083969,4.6462097-0.6164017,6.392395-2.3509979c1.3583984-1.3494034,1.8143005-3.1468048,1.8998108-5.0065002
		c0.1109009-2.413002-0.392395-4.7139053-1.5325012-6.8567123c-0.4679871-0.8795929-1.0299988-1.7141876-1.4407043-2.6185913
		c-0.9571838-2.1078949-1.2080994-4.2518005,0.234314-6.2490005c0.5848083-0.8097992,1.3811951-1.4732971,2.1190796-2.1629944
		c0.3480225-0.3252029,0.6029053-0.6072006,0.5962219-1.141304c-0.0212097-1.6744003,0.1345825-3.3582001,0.0061035-5.021698
		c-0.0924988-1.198204-0.5316162-2.3694992-0.8115234-3.5538025c-0.0545044-0.2304001-0.0877991-0.4656982-0.1349792-0.721611
		c-2.0937195,0.7348099-4.244812,0.8460007-6.4004211,0.5606155c-1.4585876-0.1931992-2.7531738-0.7835007-3.7446899-1.9881058
		c-0.373703-0.4541931-1.0314026-0.6758957-1.5619965-0.999794c-2.1146088-1.2905045-3.1358032-3.6513062-2.4073029-6.0226021
		c0.5328979-1.7345009,1.3516998-3.3203011,2.2494049-4.8790016c0.8287964-1.4391975,1.3159943-2.8969994,0.6632996-4.5923004
		c-0.6625977-1.7209969,0.2142029-2.5742989,1.6935883-3.4522972c1.6516113-0.9802017,3.2310181-1.9459991,4.2640991-3.6987991
		c0.7731018-1.3116035,2.0802002-2.0073013,3.718811-1.764801c0.968689,0.1432991,1.9407959,0.2635002,2.9118042,0.3913002
		c1.3837891,0.1819992,2.6166992-0.1688995,3.75-0.9859009c1.2445068-0.8972015,2.4707031-1.7843132,4.1186829-1.9202003
		c1.0021973-0.0825005,1.9602966-0.5704994,2.71521-1.2967987c1.8580933-1.7876015,4.1821899-2.4302025,6.6417847-2.669899
		c1.9068298-0.1858025,3.8253174-0.3005028,5.7407227-0.3359032c2.2232971-0.0410995,4.339386-0.6633987,6.5018005-1.0331001
		c3.4344788-0.5872002,6.8561096-0.8895988,10.2947998,0.0390015c0.8692932,0.2346992,1.8125916,0.228199,2.7244873,0.2631989
		c1.0450134,0.0401993,2.0943909,0.0372009,3.1393127-0.0067978c3.2290039-0.1360016,6.3804016,0.3802986,9.5168762,1.0615005
		c1.9827271,0.4306831,3.9003296,1.0710983,5.6912231,2.0074997c1.9608765,1.0250969,3.7468872,2.3256989,5.3291931,3.8887978
		c0.9577026,0.9462013,1.9804077,1.834301,2.8684082,2.8414993c1.1636047,1.3198013,2.3425903,2.6538849,3.2953796,4.1242027
		c1.0440979,1.6110992,1.9352112,3.3414001,2.7140198,5.098999c0.7758789,1.7510986,1.2685852,3.5965996,1.1017761,5.5786858
		c-0.0857849,1.0201149-0.6607971,1.5521126-1.4349976,1.9911118c-0.5638733,0.3198013-1.1821899,0.5488892-1.727478,0.895401
		c-1.0830078,0.6880035-1.382019,1.7843018-1.4388123,2.9878006c-0.0397949,0.8440018-0.0906067,1.6465988-0.6190796,2.4153976
		c-0.7119141,1.0354004-1.6781311,1.5764999-2.8036194,1.9712906c-0.9368896,0.3286133-1.8540039,0.7131119-2.7835083,1.0631104
		c-0.748291,0.2817993-1.4828796,0.6388016-2.2573853,0.8035049c-1.5115051,0.3214951-2.8218079-0.1363068-3.8862915-1.2742004
		C326.2408142,72.1824799,326.0207214,72.0207825,325.8536072,71.8746796z M277.8892212,63.6458817
		c0.1292114,0.0590019,0.2680054,0.1032867,0.3862,0.1794014c1.3335876,0.8580971,2.1816101,2.1148033,2.7007141,3.5637016
		c0.4973755,1.3881836,1.0429993,1.884697,2.5498962,1.9244995c-0.2044067-0.2817993-0.390625-0.5482025-0.5866089-0.8072052
		c-1.0140991-1.3402939-1.5819092-2.8675995-1.9700928-4.4897995c-0.4039001-1.687397-0.8788147-3.3413963-2.1910095-4.6285973
		c-0.9223938-0.9047127-1.9072876-1.452198-3.2349854-1.214901c-1.4303284,0.2556-2.8678284,0.4714012-4.2973022,0.7314034
		c-1.0014038,0.1820984-1.1220093,0.5119972-0.5579224,1.3645973c0.5731201,0.8660011,0.9486084,1.7789993,0.9157104,2.8591881
		c-0.0162048,0.5349998,0.2092896,1.0558128,0.9169922,1.1694145c-0.0499878-0.289505-0.170105-0.5547028-0.1228027-0.7856026
		c0.2218018-1.0834007-0.2451782-1.9362984-0.8007813-2.7973976c-0.4492188-0.696003-0.1560059-1.3057022,0.6625977-1.5004158
		c0.2311096-0.0548859,0.4743958-0.0796852,0.7122803-0.0812874c1.1887207-0.0078964,2.3775024-0.0035973,3.5169067-0.0035973
		c-0.3075867,0.6543007-1.1304932,0.6105995-1.7763062,0.8381996c-1.646698,0.5802994-1.8726807,1.072998-1.093689,2.6707993
		c0.0379944,0.0778847,0.1108093,0.145401,0.1275024,0.2260017c0.104187,0.5030975,0.2680054,1.0091972,0.2629089,1.5127983
		c-0.0024109,0.2414017-0.3134155,0.6640015-0.5162964,0.684082c-0.5834045,0.057518-1.2394104,0.0917206-1.7641907-0.1198807
		c-1.0029297-0.4044037-1.9250183-0.9736023-2.1482239-2.2098999c-0.1416931-0.7846031-0.3710938-1.5540009-0.5752869-2.3264008
		c-0.3252258-1.2299004-0.5085144-2.4032021,0.4682007-3.4939003c0.6525879-0.7288017,1.4275818-1.2515984,2.2547913-1.7150993
		c1.2347107-0.6920013,2.5436096-1.2821007,3.1144104-2.8010025c0.3098755,0.9958,0.2500916,1.7761879-0.6753235,2.2809029
		c-0.2052917,0.1119003-0.3862,0.2681999-0.5806885,0.4006996c-0.7730103,0.5266991-1.5718994,1.014698-1.9151001,1.9735832
		c-0.2810974,0.7858162-0.0606079,1.1791153,0.7680054,1.0741158c0.7924805-0.1002998,1.5682068-0.3398018,2.3480835-0.5312996
		c1.1824951-0.2904015,2.3936157-0.4808159,3.51651,0.0848999c1.5563049,0.7840004,2.7062988,2.0313988,3.3521118,3.6506996
		c0.5774841,1.4482002,0.9971924,2.9587021,1.5254822,4.4276962c0.8526001,2.3708878,2.1564026,4.3625031,4.4987183,5.5670013
		c1.7097778,0.879303,3.4873962,1.4095993,5.3898926,1.2098007c1.7808838-0.1869965,3.4562988,0.1794052,5.1598816,0.5587006
		c0.9476013,0.2108994,1.9287109,0.3406982,2.898407,0.3665009c1.4086914,0.0373993,2.5312195-0.7603989,3.3284912-1.7715988
		c0.8999023-1.1412048,1.5942993-2.4670029,2.2371216-3.781517c0.5989075-1.2247849,1.575592-1.7887802,2.8136902-2.0421829
		c0.3641968-0.074501,0.7503052-0.0419998,1.0726013-0.0561981c-0.7673035,0.6527939-1.6107788,1.1950989-2.2150879,1.9332962
		c-0.6174011,0.7542038-1,1.7006989-1.4854126,2.5630035c0.0585938,0.0324936,0.1173096,0.0650864,0.1759949,0.0975952
		c0.5967102-0.2513962,1.1752014-0.5673981,1.7937012-0.7414017c1.5578003-0.4381943,3.1271973-0.822197,3.8289185-2.6171112
		c0.0928955,0.2007141,0.2111816,0.3310013,0.1891785,0.4301147c-0.1105042,0.4977036-0.1985779,1.0137024-0.4049988,1.4737015
		c-0.3600769,0.8026962-0.2623901,1.1091843,0.5617065,1.3478012c1.2108154,0.3506012,3.6802063-0.6297989,4.3366089-1.7080994
		c1.4685974-2.4123001,1.1987-5.0197029-0.4225159-7.194603c-0.2890015-0.3877983-0.6118774-0.7504005-0.9386902-1.1484985
		c0.1871033,1.3041,0.4504089,2.5182991,0.5119934,3.7425842c0.0617981,1.2291107-0.6907043,2.8887177-1.3374023,3.3332138
		c-0.0390015-1.2802124-0.6663818-2.2714996-1.4563904-3.1970978c-0.4184875-0.4904022-0.8143005-1.0050011-1.174408-1.5397034
		c-0.762207-1.1314125-1.2599792-2.3268967-0.4715881-3.6502991c0.5977783-1.0034981,1.2389832-1.9818993,1.8829956-2.9570007
		c0.6325073-0.9576988,0.8928833-1.9678993,0.5523071-3.0941124c-0.0518188-0.1710854-0.0815125-0.3488846-0.1558228-0.6744843
		c0.9393005,0.7301979,1.6605225,1.4124832,1.6769104,2.5266991c0.0121155,0.824501-0.0454102,1.6499977-0.0683899,2.4750977
		c-0.0212097,0.766201-0.0624084,1.5544014,0.4371033,2.1982002c0.6701965,0.8640022,1.3710938,1.7063026,2.0968933,2.5241013
		c0.6227112,0.7016983,1.2529907,1.3790016,1.3530884,2.3747978c0.0610046,0.6068039,0.1407166,1.2118988,0.2227173,1.8162994
		c0.067688,0.4994049,0.1512756,0.9966049,0.2278137,1.4948044c0.0739746,0.0388947,0.1479797,0.0776978,0.2219849,0.1164856
		c0.6030884-0.5078888,1.243988-0.97789,1.7992859-1.5334854c0.643219-0.6434021,0.5271912-1.4889984,0.3869934-2.3360023
		c0.916626,0.5849037,1.1994019,1.1261024,0.9746094,1.8020973c-0.1026001,0.3086014-0.2796936,0.6123047-0.2962036,0.9249039
		c-0.0238953,0.4538956-0.0956726,1.0848999,0.1548157,1.322998c0.2490845,0.2369003,0.8710022,0.0904007,1.3293762,0.0918045
		c0.0986023,0.0002975,0.1984253-0.0838013,0.2958069-0.1324997c0.7164001-0.3580017,1.4197998-0.7451019,2.1517944-1.0674057
		c0.7238159-0.3186951,1.4680176-0.245697,2.1177063-0.0684967c-0.8259888,0.4832001-1.681488,0.9318008-2.477478,1.4684982
		c-0.4916992,0.3314972-0.8969116,0.8480988-0.7273254,1.4858017c0.1748962,0.657402,0.8072205,0.7313004,1.3489075,0.6213989
		c1.2294006-0.2492981,2.4851074-0.4721985,3.6448975-0.9244003c0.7715149-0.3007965,1.4969177-0.8868027,2.0630188-1.5089035
		c0.9187927-1.0095978,1.3088989-2.3175964,1.6894836-3.6205978c0.2409058-0.8250999,0.6308899-1.6121979,1.0057068-2.3914986
		c0.7330017-1.524498,1.887207-2.7402153,3.0014038-3.9828987c0.7880859-0.8791008,1.1007996-1.9279022,0.9420776-3.0797997
		c-0.2041931-1.4826012-0.7198792-2.8815155-1.5585938-4.1138992c-1.8925781-2.7807007-4.4419861-4.9192009-7.0912781-6.9262009
		c-1.3257141-1.0044174-2.7263184-1.9393005-4.1910095-2.7224998c-1.4081116-0.7529144-2.9013062-1.4093018-4.4301147-1.8613014
		c-3.3522034-0.9912987-6.8264771-1.1163979-10.297699-1.0664978c-2.702301,0.0388832-5.4031677,0.1746979-8.1051025,0.2556
		c-0.7566833,0.0226974-1.5145874,0.0034981-2.2931824,0.0034981c0.629303-0.3857994,1.495697-0.463398,1.821991-1.3774986
		c-2.1634827-0.2782021-4.132782,0.0103989-6.046875,0.6669998c-0.319519,0.1096001-0.671814,0.4776993-0.7537231,0.7928009
		c-0.0491943,0.1893997,0.3959961,0.5065994,0.617218,0.7679977c0.0396729,0.0469017,0.0704956,0.1012993,0.1130981,0.1636009
		c-1.049408-0.1403999-2.0861206-0.2479019-3.1114197-0.422699c-2.3041077-0.3930016-4.6156921-0.6913033-6.9578857-0.5645027
		c-2.4363098,0.132-4.7001038,0.7329025-6.5910034,2.4112015c-1.3994141,1.2420998-3.0252991,2.0070992-4.9439087,2.0589981
		c-0.4714966,0.0127029-0.9515076,0.1050034-1.4075012,0.2324028c-1.4928894,0.4169006-2.4663086,1.5438995-3.5062866,2.5917969
		c-1.1733093,1.1823006-2.5054932,1.7516861-4.235199,1.1925011c-0.839386-0.2714005-1.7962036-0.3504982-2.6794128-0.2756996
		c-1.3605957,0.1152992-2.1228027,1.2392006-2.9954834,2.1347008c-0.7481995,0.7677002-1.5800171,1.4454994-2.634491,1.699398
		c-1.12323,0.2705002-1.8756104,0.9526024-2.4135132,1.905201c-0.3791046,0.671402-0.3899078,1.3825874-0.1484985,2.1394005
		c0.1452942,0.4556007,0.1734009,0.9906006,0.0993042,1.4656982c-0.1755066,1.1240997-0.8388062,2.0226021-1.4940186,2.9233017
		c-0.3902893,0.5363998-0.7631989,1.1072998-1.0193939,1.7151871c-0.6858063,1.6279144-0.751297,3.2836113-0.0471954,4.9419098
		c0.7272949,1.7129059,2.2356873,3.5389023,4.4537964,3.357605c0.6716003-0.0549011,1.3512878-0.0054016,2.0270996-0.0162048
		c0.9108887-0.0146942,1.6928101,0.2858047,2.3981018,0.9570007c-1.781311-0.615799-3.494812-0.1013947-5.3930969-0.0811005
		c0.680603,0.8009033,1.3578796,1.2229996,2.1896057,1.3694c1.9057922,0.3353043,3.7303772-0.0716095,5.4786987-0.6212006
		c-0.2674255-0.2796936-0.549408-0.5746994-0.7950134-0.8315964c1.1347961,0.1238022,2.2568054,0.3908005,3.362915,0.3360977
		c2.1219788-0.1049118,4.1117859-0.8649979,6.1040955-1.5554962c0.2890015-0.1002045,0.582489-0.1871033,0.8739014-0.2801056
		c0.0235901,0.0531006,0.0472107,0.1062012,0.0706787,0.1594009c-0.2963867,0.2182007-0.5927734,0.4364014-1.0137939,0.7462921
		c1.5578003,0.1543121,2.986908,0.5975113,4.4877014-0.177887c-0.2717896-0.3557053-0.4673767-0.6116028-0.6629944-0.8675003
		c0.039093-0.0556183,0.078186-0.1113052,0.1173096-0.1669006c0.6611938,0.3611984,1.3222961,0.7222824,2.0446777,1.1169968
		C279.8365173,66.9030838,279.3538208,65.1597824,277.8892212,63.6458817z M302.0254211,88.6124802
		c3.7903137,0.0786057,7.1716003-0.1173096,10.5521851-0.5895004c3.0734253-0.4291992,6.0488281-1.1735992,8.9898071-2.1277008
		c1.0046997-0.3259964,1.421814-0.9865952,1.4904175-1.9720001c0.1543884-2.2158966,0.3743896-4.4289932,0.458374-6.6473999
		c0.0921021-2.4338989,0.1038208-4.8730927,0.0646057-7.3084946c-0.0171814-1.0705032-0.572876-1.5858994-1.6324768-1.4888
		c-0.9562073,0.0875015-1.9109192,0.3709946-2.8255005,0.6861954c-1.223114,0.4213867-2.3962097,0.9856033-3.610199,1.4360046
		c-1.625824,0.603096-3.2549133,0.7108002-4.8876038-0.047905c-0.5855103-0.2720947-1.1674194-0.1511993-1.7163086,0.2485046
		c-0.8720093,0.6348953-1.7113037,1.3520966-2.8623962,1.461998c-0.1481018,0.0140991-0.2921143,0.1644974-0.4208984,0.2722015
		c-2.2198181,1.8572998-4.7052002,2.4869995-7.5457153,1.7579956c-1.5076904-0.3869934-2.9862976-0.9281998-4.6000977-0.8528976
		c-0.9252014,0.0430984-1.8808899-0.0439987-2.7875977-0.2372971c-2.2286987-0.4752121-4.3240967-1.2711029-6.0679932-2.8290024
		c-0.2518005-0.2248993-0.7023926-0.3230972-1.059082-0.3189011c-2.1140137,0.0248032-4.2284241,0.1654053-6.3406067,0.132103
		c-1.7121277-0.0270004-3.4208984-0.2461014-5.1318054-0.3719025c-0.1188965-0.0086975-0.2477112,0.0369034-0.3633118,0.0802002
		c-0.5881958,0.2202835-1.1611023,0.4934006-1.7638855,0.6592026c-0.4813232,0.1324005-0.6664124,0.4000854-0.7172241,0.8621979
		c-0.1281738,1.1668854-0.167572,2.3585968-0.4442749,3.4911041c-0.5992126,2.4526978-0.8430176,4.9247818-0.8131104,7.4419937
		c0.0144958,1.2254028,0.6091003,2.0031052,1.6520996,2.5046005c0.3497925,0.16819,0.7237854,0.3021851,1.100708,0.3949051
		c1.7521057,0.4309998,3.4960022,0.9118958,5.267395,1.2435989c2.6929016,0.5042953,5.3917847,1.1166,8.1138,1.2978973
		C290.211731,88.1968842,296.3145142,88.3646851,302.0254211,88.6124802z M340.9186096,55.4042816
		c0.0101013,1.9645996-0.3288879,3.6990013-1.3529968,5.1781006c-0.7669983,1.1079025-1.7414856,2.0770988-2.663208,3.0714989
		c-0.9111938,0.9831047-1.6302795,2.0536003-1.9073792,3.3088036c0.7756958,0.0429001,1.5070801,0.0832977,2.2385864,0.1237946
		c-0.0003052,0.0589066-0.0004883,0.1179047-0.0007935,0.1768036c-1.8020935,0.4800034-3.4238892,1.2525024-4.6976013,2.8632965
		c1.0665894-0.1894073,1.9996033-0.3549957,2.9324951-0.5205994c-0.2164001,0.3181-0.4739075,0.5881882-0.7893982,0.7246017
		c-0.7569885,0.3274994-1.5556946,0.5595016-2.3096924,0.8929977c-0.5566101,0.2462997-1.0888977,0.5720062-1.2887878,1.0975876
		c1.2010803-0.4000854,2.4232788-0.8020859,3.6419983-1.214386c1.8118896-0.6128998,3.3257751-1.4509964,3.4458008-3.7036972
		c0.0844727-1.5849152,0.6451721-2.9613037,2.0730896-3.9431992c0.6021118-0.4141006,1.1011963-1.1730003,1.3428955-1.8792
		C342.2940063,59.5051689,341.9742126,57.4749832,340.9186096,55.4042816z"/>
	<path d="M277.8052063,196.5670776c0.0825195-1.5175934,0.1916199-3.0343018,0.2425232-4.5529938
		c0.1595764-4.7554016-0.0511169-9.4868011-0.7109985-14.2093964c-0.3298035-2.3610077-0.5314026-4.7762146-0.4342957-7.1523132
		c0.153595-3.7582092,2.0741882-6.6758881,5.1303711-8.780899c1.5600281-1.0744934,3.2297058-2.0245972,4.9441223-2.8300018
		c1.5955811-0.7496948,3.3162842-1.2328949,4.9819031-1.8333893c0.0215759,0.0574036,0.0431824,0.1147003,0.0647888,0.1720886
		c-1.4487,0.7513123-2.9130859,1.4741058-4.3425903,2.2603149c-2.5075989,1.3791962-4.9066162,2.9332886-6.5346985,5.3576813
		c-1.4988098,2.2319183-2.5057068,4.6738129-2.4412231,7.4356079c0.0467224,2.0019989,0.0476074,4.0100098,0.2134094,6.0032959
		c0.4046936,4.8670959,0.183197,9.7132111-0.3581848,14.5506134c-0.1348267,1.2052917-0.4476013,2.3905945-0.6786194,3.5850983
		C277.8562317,196.5708771,277.8308105,196.568985,277.8052063,196.5670776z"/>
	<path d="M293.7803345,133.7014771c-0.9687195,0.7863007-1.7816162,1.4844971-2.6367188,2.126297
		c-0.5342102,0.4009094-1.134491,0.7132111-1.7012024,1.0715027c-1.4776001,0.9343109-3.0937805,1.343811-4.8341064,1.2736969
		c-0.2596741-0.0103912-0.520874-0.0508118-0.7754822-0.1051941c-1.4904175-0.3188019-2.0144958-1.076004-1.7897034-2.5713959
		c0.019104-0.1271057,0.0441895-0.2532959,0.0715027-0.4089966c-0.1743164-0.0686035-0.3294983-0.1320038-0.4863892-0.1909027
		c-0.5145264-0.1933136-0.7033081-0.5588074-0.5466003-1.0817108c0.14328-0.4782867,0.307373-0.9503937,0.4698792-1.422699
		c0.1540222-0.4473877,0.4468079-0.5602875,0.8666992-0.3391876c0.1347046,0.0708923,0.2855225,0.1209869,0.4026184,0.2137909
		c0.5552979,0.4398041,1.1161804,0.5209045,1.6248779-0.0332947c0.8334045-0.9078064,1.7604065-0.508606,2.4500122,0.0157928
		c1.9797974,1.5057983,4.1955872,1.6401062,6.5174866,1.4266052
		C293.455719,133.671875,293.4993286,133.6811676,293.7803345,133.7014771z"/>
	<path d="M303.8744202,108.5492783c-1.9682922,2.5910034-4.7264099,3.8108902-7.6299133,5.0796051
		c0.3277283-0.4552002,0.5471191-0.7975006,0.8037109-1.1092987c0.7358093-0.8936005,0.4691162-1.7770004-0.9130859-2.0940018
		c0.2485962,1.1296997,0.1239929,2.1411972-0.962616,2.7679977c-0.8703918,0.5020981-1.7912903,0.4029999-2.5007019-0.213501
		c-0.7393799-0.6425018-1.0202942-1.5469131-0.5787964-2.5421982c-1.3197937,0.0059967-2.4264832,1.2787018-3.0524902,3.4682846
		c-1.2590942-0.8605881-1.3945923-3.0307846-0.2437134-4.0230865c1.7018127-1.4670944,3.6963196-1.8527985,5.8531189-1.4899979
		c1.2838745,0.2160034,2.5400085,0.6135025,3.8277893,0.7865982c1.6604004,0.2233047,3.3447876,0.3469009,4.8920898-0.5616989
		c0.0733032-0.0430984,0.1620178-0.0628128,0.2459106-0.0839005
		C303.6542053,108.5243835,303.6985168,108.5374832,303.8744202,108.5492783z"/>
	<path d="M275.8083191,111.6618805c-0.881012-0.2145996-1.6864929-0.1752014-2.4927063,0.335289
		c-1.2514038,0.792511-2.7500916,1.1234131-4.0155945,0.2997131c1.0383911,0.1850967,1.6474915-0.3159027,2.1878052-0.9983978
		c1.2257996-1.5484009,2.7492065-1.9023132,4.5942078-1.0354996c1.3283997,0.6241837,2.5814819,1.3829956,3.0903931,2.8741837
		c0.1712952,0.5021133,0.144989,1.0718155,0.2089844,1.610611c-0.0664673,0.0073853-0.1328735,0.014801-0.1994019,0.0222015
		c-0.1326904-0.396698-0.2653809-0.7934036-0.3769836-1.1268158c-0.4872131,0.3278122-0.8977051,0.7238159-1.3866882,0.8919144
		c-0.3395081,0.1166992-0.84021,0.0208054-1.1756287-0.156601
		C275.3716125,113.917778,275.2685242,113.111084,275.8083191,111.6618805z"/>
	<path d="M283.151825,128.516983c0.533783-0.7578125,1.2006836-1.1688156,1.9576111-1.4372025
		c0.1531982-0.0542984,0.370697,0.0360031,0.5477905,0.0932007c0.444397,0.1435013,0.8825989,0.3061905,1.3648071,0.4757996
		C285.84021,128.188385,284.5598145,128.3936768,283.151825,128.516983z"/>
	<path fill="#FFFFFF" d="M277.8892212,63.6458817c1.4645996,1.5139008,1.9472961,3.2572021,1.4780884,5.3339996
		c-0.7223816-0.3947144-1.3834839-0.7557983-2.0446777-1.1169968c-0.0391235,0.0555954-0.0782166,0.1112823-0.1173096,0.1669006
		c0.1956177,0.2558975,0.3912048,0.511795,0.6629944,0.8675003c-1.5007935,0.7753983-2.9299011,0.3321991-4.4877014,0.177887
		c0.4210205-0.3098907,0.7174072-0.5280914,1.0137939-0.7462921c-0.023468-0.0531998-0.0470886-0.1063004-0.0706787-0.1594009
		c-0.2914124,0.0930023-0.5848999,0.1799011-0.8739014,0.2801056c-1.9923096,0.6904984-3.9821167,1.4505844-6.1040955,1.5554962
		c-1.1061096,0.0547028-2.2281189-0.2122955-3.362915-0.3360977c0.2456055,0.256897,0.5275879,0.5519028,0.7950134,0.8315964
		c-1.7483215,0.5495911-3.5729065,0.9565048-5.4786987,0.6212006c-0.8317261-0.1464005-1.5090027-0.5684967-2.1896057-1.3694
		c1.8982849-0.0202942,3.6117859-0.5346985,5.3930969,0.0811005c-0.7052917-0.671196-1.4872131-0.9716949-2.3981018-0.9570007
		c-0.6758118,0.0108032-1.3554993-0.0386963-2.0270996,0.0162048c-2.2181091,0.1812973-3.7265015-1.6446991-4.4537964-3.357605
		c-0.7041016-1.6582985-0.6386108-3.3139954,0.0471954-4.9419098c0.2561951-0.6078873,0.6291046-1.1787872,1.0193939-1.7151871
		c0.6552124-0.9006996,1.318512-1.799202,1.4940186-2.9233017c0.0740967-0.4750977,0.04599-1.0100975-0.0993042-1.4656982
		c-0.2414093-0.756813-0.2306061-1.4679985,0.1484985-2.1394005c0.5379028-0.9525986,1.2902832-1.6347008,2.4135132-1.905201
		c1.0544739-0.2538986,1.8862915-0.9316978,2.634491-1.699398c0.8726807-0.8955002,1.6348877-2.0194016,2.9954834-2.1347008
		c0.8832092-0.0747986,1.8400269,0.0042992,2.6794128,0.2756996c1.7297058,0.559185,3.0618896-0.0102005,4.235199-1.1925011
		c1.039978-1.0478973,2.0133972-2.1748962,3.5062866-2.5917969c0.4559937-0.1273994,0.9360046-0.2196999,1.4075012-0.2324028
		c1.9186096-0.051899,3.5444946-0.8168983,4.9439087-2.0589981c1.8908997-1.678299,4.1546936-2.2792015,6.5910034-2.4112015
		c2.3421936-0.1268005,4.6537781,0.1715012,6.9578857,0.5645027c1.0252991,0.1747971,2.0620117,0.282299,3.1114197,0.422699
		c-0.0426025-0.0623016-0.0734253-0.1166992-0.1130981-0.1636009c-0.2212219-0.2613983-0.6664124-0.578598-0.617218-0.7679977
		c0.0819092-0.3151016,0.4342041-0.6832008,0.7537231-0.7928009c1.914093-0.656601,3.8833923-0.9452019,6.046875-0.6669998
		c-0.3262939,0.9141006-1.192688,0.9916992-1.821991,1.3774986c0.778595,0,1.536499,0.0191994,2.2931824-0.0034981
		c2.7019348-0.0809021,5.4028015-0.2167168,8.1051025-0.2556c3.4712219-0.0499001,6.9454956,0.0751991,10.297699,1.0664978
		c1.5288086,0.4519997,3.0220032,1.108387,4.4301147,1.8613014c1.4646912,0.7831993,2.8652954,1.7180824,4.1910095,2.7224998
		c2.649292,2.007,5.1987,4.1455002,7.0912781,6.9262009c0.8387146,1.2323837,1.3544006,2.6312981,1.5585938,4.1138992
		c0.1587219,1.1518974-0.1539917,2.2006989-0.9420776,3.0797997c-1.1141968,1.2426834-2.2684021,2.4584007-3.0014038,3.9828987
		c-0.3748169,0.7793007-0.764801,1.5663986-1.0057068,2.3914986c-0.3805847,1.3030014-0.7706909,2.6110001-1.6894836,3.6205978
		c-0.5661011,0.6221008-1.2915039,1.208107-2.0630188,1.5089035c-1.15979,0.4522018-2.4154968,0.6751022-3.6448975,0.9244003
		c-0.541687,0.1099014-1.1740112,0.0360031-1.3489075-0.6213989c-0.1695862-0.6377029,0.2356262-1.1543045,0.7273254-1.4858017
		c0.79599-0.5366974,1.6514893-0.9852982,2.477478-1.4684982c-0.6496887-0.1772003-1.3938904-0.2501984-2.1177063,0.0684967
		c-0.7319946,0.3223038-1.4353943,0.709404-2.1517944,1.0674057c-0.0973816,0.0486984-0.1972046,0.1327972-0.2958069,0.1324997
		c-0.458374-0.0014038-1.0802917,0.1450958-1.3293762-0.0918045c-0.2504883-0.2380981-0.1787109-0.8691025-0.1548157-1.322998
		c0.01651-0.3125992,0.1936035-0.6163025,0.2962036-0.9249039c0.2247925-0.6759949-0.0579834-1.2171936-0.9746094-1.8020973
		c0.1401978,0.8470039,0.2562256,1.6926003-0.3869934,2.3360023c-0.5552979,0.5555954-1.1961975,1.0255966-1.7992859,1.5334854
		c-0.0740051-0.0387878-0.1480103-0.0775909-0.2219849-0.1164856c-0.0765381-0.4981995-0.1601257-0.9953995-0.2278137-1.4948044
		c-0.0820007-0.6044006-0.1617126-1.2094955-0.2227173-1.8162994c-0.1000977-0.9957962-0.7303772-1.6730995-1.3530884-2.3747978
		c-0.7257996-0.8177986-1.4266968-1.660099-2.0968933-2.5241013c-0.4995117-0.6437988-0.458313-1.4319992-0.4371033-2.1982002
		c0.0229797-0.8250999,0.0805054-1.6505966,0.0683899-2.4750977c-0.0163879-1.1142159-0.7376099-1.7965012-1.6769104-2.5266991
		c0.0743103,0.3255997,0.1040039,0.5033989,0.1558228,0.6744843c0.3405762,1.1262131,0.0802002,2.1364136-0.5523071,3.0941124
		c-0.6440125,0.9751015-1.2852173,1.9535027-1.8829956,2.9570007c-0.7883911,1.3234024-0.2906189,2.5188866,0.4715881,3.6502991
		c0.3601074,0.5347023,0.7559204,1.0493011,1.174408,1.5397034c0.7900085,0.9255981,1.4173889,1.9168854,1.4563904,3.1970978
		c0.646698-0.4444962,1.3992004-2.1041031,1.3374023-3.3332138c-0.0615845-1.2242851-0.3248901-2.4384842-0.5119934-3.7425842
		c0.3268127,0.398098,0.6496887,0.7607002,0.9386902,1.1484985c1.6212158,2.1749001,1.8911133,4.7823029,0.4225159,7.194603
		c-0.6564026,1.0783005-3.1257935,2.0587006-4.3366089,1.7080994c-0.8240967-0.2386169-0.9217834-0.545105-0.5617065-1.3478012
		c0.2064209-0.4599991,0.2944946-0.9759979,0.4049988-1.4737015c0.0220032-0.0991135-0.096283-0.2294006-0.1891785-0.4301147
		c-0.7017212,1.7949142-2.2711182,2.1789169-3.8289185,2.6171112c-0.6184998,0.1740036-1.196991,0.4900055-1.7937012,0.7414017
		c-0.0586853-0.0325089-0.1174011-0.0651016-0.1759949-0.0975952c0.4854126-0.8623047,0.8680115-1.8087997,1.4854126-2.5630035
		c0.6043091-0.7381973,1.4477844-1.2805023,2.2150879-1.9332962c-0.3222961,0.0141983-0.7084045-0.0183029-1.0726013,0.0561981
		c-1.2380981,0.2534027-2.2147827,0.8173981-2.8136902,2.0421829c-0.6428223,1.3145142-1.3372192,2.6403122-2.2371216,3.781517
		c-0.7972717,1.0112-1.9197998,1.8089981-3.3284912,1.7715988c-0.969696-0.0258026-1.9508057-0.1556015-2.898407-0.3665009
		c-1.7035828-0.3792953-3.3789978-0.745697-5.1598816-0.5587006c-1.9024963,0.1997986-3.6801147-0.3304977-5.3898926-1.2098007
		c-2.3423157-1.2044983-3.6461182-3.1961136-4.4987183-5.5670013c-0.5282898-1.4689941-0.947998-2.979496-1.5254822-4.4276962
		c-0.645813-1.6193008-1.7958069-2.8666992-3.3521118-3.6506996c-1.1228943-0.5657158-2.3340149-0.3753014-3.51651-0.0848999
		c-0.7798767,0.1914978-1.555603,0.4309998-2.3480835,0.5312996c-0.8286133,0.1049995-1.0491028-0.2882996-0.7680054-1.0741158
		c0.3432007-0.9588852,1.1420898-1.4468842,1.9151001-1.9735832c0.1944885-0.1324997,0.3753967-0.2887993,0.5806885-0.4006996
		c0.925415-0.504715,0.985199-1.2851028,0.6753235-2.2809029c-0.5708008,1.5189018-1.8796997,2.1090012-3.1144104,2.8010025
		c-0.8272095,0.463501-1.6022034,0.9862976-2.2547913,1.7150993c-0.9767151,1.0906982-0.7934265,2.2639999-0.4682007,3.4939003
		c0.2041931,0.7723999,0.4335938,1.5417976,0.5752869,2.3264008c0.2232056,1.2362976,1.1452942,1.8054962,2.1482239,2.2098999
		c0.5247803,0.2116013,1.1807861,0.1773987,1.7641907,0.1198807c0.2028809-0.0200806,0.5138855-0.4426804,0.5162964-0.684082
		c0.0050964-0.5036011-0.1587219-1.0097008-0.2629089-1.5127983c-0.0166931-0.0806007-0.0895081-0.1481171-0.1275024-0.2260017
		c-0.7789917-1.5978012-0.553009-2.0904999,1.093689-2.6707993c0.645813-0.2276001,1.4687195-0.1838989,1.7763062-0.8381996
		c-1.1394043,0-2.328186-0.0042992-3.5169067,0.0035973c-0.2378845,0.0016022-0.4811707,0.0264015-0.7122803,0.0812874
		c-0.8186035,0.1947136-1.1118164,0.8044128-0.6625977,1.5004158c0.555603,0.8610992,1.022583,1.7139969,0.8007813,2.7973976
		c-0.0473022,0.2308998,0.0728149,0.4960976,0.1228027,0.7856026c-0.7077026-0.1136017-0.933197-0.6344147-0.9169922-1.1694145
		c0.0328979-1.0801888-0.3425903-1.993187-0.9157104-2.8591881c-0.5640869-0.8526001-0.4434814-1.1824989,0.5579224-1.3645973
		c1.4294739-0.2600021,2.8669739-0.4758034,4.2973022-0.7314034c1.3276978-0.2372971,2.3125916,0.3101883,3.2349854,1.214901
		c1.3121948,1.2872009,1.7871094,2.9412003,2.1910095,4.6285973c0.3881836,1.6222,0.9559937,3.1495056,1.9700928,4.4897995
		c0.1959839,0.2590027,0.3822021,0.5254059,0.5866089,0.8072052c-1.506897-0.0398026-2.0525208-0.5363159-2.5498962-1.9244995
		c-0.519104-1.4488983-1.3671265-2.7056046-2.7007141-3.5637016
		C278.1572266,63.7491684,278.0184326,63.7048836,277.8892212,63.6458817z M275.8534241,50.1084824
		c0.0369873,0.0074005,0.0740051,0.014801,0.1109924,0.0222015c0.1585083-0.4027023,0.3248901-0.8025169,0.473999-1.2085991
		c0.335907-0.9152031,1.3226929-1.4996033,2.282196-1.3075027c0.5104065,0.1021996,1.0082092,0.2669029,1.5126038,0.4000015
		c0.9453125,0.2492981,1.8868103,0.3577003,2.7955933-0.1311989c1.0262146-0.552002,1.8106995-1.3791008,2.5644226-2.2465019
		c1.1627808-1.338398,2.7316895-2.2177124,4.602478-1.3195c1.5603027,0.7490997,3.1455994,1.4710999,4.7772217,2.040699
		c2.553894,0.8916016,5.230011,1.2600861,7.9085999,1.5972023c2.1230774,0.2670975,4.3442993,0.2300987,6.1428833,1.7152977
		c-0.6154785-1.0270004-1.6572876-1.425499-2.6775818-1.8125c-1.0155029-0.3850975-2.0684204-0.6716003-3.2400208-1.0443993
		c1.4862061-0.6899986,2.8777161-0.8639984,4.2991943-0.8171997c1.4072266,0.046402,2.8129272,0.1383018,4.151825,0.2066841
		c-2.6296997-0.6170845-5.3607178-1.034584-8.1340027-0.6795845c-2.7655029,0.3539009-5.3724976-0.1470985-7.8963013-1.2115974
		c-1.8164063-0.7661018-3.5887146-1.6372032-5.4070129-2.3986015c-2.5162048-1.0536995-6.3693848-0.645401-8.4606934,1.6561012
		c-1.0076904,1.1089973-2.2095032,1.8824997-3.6680908,2.1956825c-1.1658936,0.2504158-2.3590088,0.3716164-3.5288086,0.6064148
		c-2.3478088,0.4710999-4.1594849,1.7585869-5.490387,3.7416992c0.2668762-0.1641121,0.5180969-0.3508987,0.7584839-0.5506973
		c1.3576965-1.1280022,2.8391113-1.9368019,4.6805115-1.7890015c1.1647034,0.093502,1.696106,0.7933006,1.5117798,1.9583015
		C275.9034119,49.8578835,275.8769226,49.9829826,275.8534241,50.1084824z M293.1261292,53.3733826
		c-0.0202942-0.0305977-0.0404968-0.0612144-0.0606995-0.0918007c-0.4087219,0.344101-0.823822,0.6809006-1.2247009,1.033802
		c-1.0775146,0.9484978-1.9334106,2.0910988-2.3643188,3.4440994c-1.1579895,3.6366005-0.8295898,7.2223969,0.6860046,10.6940994
		c0.2794189,0.6399994,0.7467957,1.2380981,1.2496948,1.7307968c0.732605,0.7176056,1.5566101,0.4467926,1.8675232-0.5243988
		c0.08078-0.2526016,0.1555786-0.5070953,0.2413025-0.7872009c1.6313782,2.1445007,3.8516846,2.9647064,6.3476868,3.2413025
		c-2.1603088-1.1075974-3.7200928-2.7900009-4.7369995-4.9689102c-1.0346985-2.2172928-1.3637085-4.5124893-0.4960938-6.8982887
		c-0.072998-0.0381012-0.1459045-0.0762024-0.218811-0.1142998c-0.5131836,0.5966988-1.0263977,1.1932983-1.5870972,1.8452988
		c-0.5390015-0.8287125-1.1022034-1.6429977-1.1817932-2.683712c-0.0960999-1.2543869,0.0227051-2.4724884,0.5505981-3.6386871
		C292.5368347,54.9079819,292.8188171,54.1349831,293.1261292,53.3733826z M288.7817078,70.7705841
		c-0.2081909-0.4113007-0.3587646-0.6450043-0.4494019-0.9001007c-0.2582703-0.7269974-0.6473694-1.4517975-0.7003784-2.1977005
		c-0.0869141-1.225502-0.6560059-1.9885025-1.7318115-2.4290009c-0.6948853-0.2845001-0.9775085-0.8280029-1.0574036-1.5112
		c-0.1743774-1.4910011-0.3065796-2.9871979-0.4979858-4.4758987c-0.2090149-1.6254005-0.658905-3.1763992-1.5392151-4.5842018
		c-0.7388-1.1814995-1.6257935-2.2406998-2.7778931-3.0141983c-0.8122864-0.5452995-1.6399841-1.1445007-2.7103882-1.2400017
		c0.9485779,1.9225006,0.9423828,1.921402,0.5630798,4.0567017c-0.0640869,0.3609009-0.1168823,0.7490005-0.0502014,1.1008987
		c0.0651245,0.3432884,0.2197266,0.7257004,0.4591064,0.9686012c0.5428162,0.5506859,1.1383057,1.0569,1.7541199,1.5265999
		c2.1312866,1.6254997,3.3625793,3.7968979,4.0405884,6.3554001
		C284.7833252,67.0661697,286.0592346,69.3264847,288.7817078,70.7705841z M334.2550049,55.1071701
		c0.0557251-0.6780853,0.0974121-1.2380867,0.148407-1.797287c0.144104-1.5808983-0.5534058-2.7064018-1.8450928-3.4287987
		c-0.8291016-0.4636002-1.6040955-1.1068001-2.2399902-1.8159142c-1.2972107-1.4464874-2.467804-3.0055885-3.7216187-4.4920883
		c-1.0202942-1.2095985-2.3146973-2.0028-3.8650818-2.368c-0.9801025-0.2307968-1.9432983-0.2406998-3.0059204,0.1374016
		c1.6434021,0.3105011,3.0064087,0.8599014,3.9375,2.2186012c0.2445068,0.3565979,0.6584167,0.6453972,1.0559082,0.8400002
		c1.3182983,0.6455002,1.8366089,1.6194992,1.5441895,3.0718994c-0.0986938,0.4904976-0.2389832,0.9738007-0.3148804,1.4673996
		c-0.1031189,0.6704979,0.2395935,1.2728996,0.8562927,1.512001c0.7690125,0.2981987,1.5678101,0.5252991,2.3190918,0.8607826
		c0.41922,0.1872139,0.9819031,0.4591141,1.1052246,0.8207169c0.2742004,0.8041992,0.8849792,0.9960976,1.5385742,1.213398
		C332.7402344,53.6705818,333.6722107,54.0496826,334.2550049,55.1071701z M265.6978149,60.7441673
		c0.0274048-0.0257835,0.0548096-0.0515862,0.0822144-0.0772858c-0.0834045-0.1117973-0.1678162-0.2229004-0.2499084-0.3357124
		c-0.0895081-0.123085-0.177887-0.2470016-0.2647095-0.3718872c-1.2654724-1.8202972-2.7851868-3.4043007-4.6200867-4.6395988
		c-0.6773071-0.4561005-1.5243835-0.6708984-2.3121948-0.9434013c-0.179718-0.0621986-0.4344177,0.0923004-0.6546021,0.1471024
		c0.0654907,0.2167854,0.0733032,0.4822998,0.207489,0.6411972c0.4066162,0.4814034,0.8619995,0.9215012,1.2834167,1.3619003
		c-0.4403076,0-0.8734131-0.0345001-1.2960205,0.0171013c-0.1667786,0.020401-0.4293823,0.2266998-0.4358826,0.358799
		c-0.0093994,0.1914024,0.1266785,0.5018997,0.2835999,0.5697861c0.6100769,0.263916,1.2424927,0.5929146,1.8856812,0.6407166
		c1.598999,0.1187973,3.0588074,0.5706978,4.392395,1.4410973C264.5778198,59.9316826,265.1323242,60.346283,265.6978149,60.7441673
		z M265.0501099,64.430481c-1.4300842-0.9505997-2.8765869-1.5461998-4.3848877-2.0335999
		c-1.1585999-0.3743973-2.3349915-0.5831985-3.5213928-0.3857117c-0.6794128,0.1131134-1.3341064,0.463913-1.957901,0.788414
		c-0.3688049,0.1917992-0.4932098,0.6067009-0.1284027,0.923584c0.3876953,0.3368149,0.8480988,0.5898132,1.2767944,0.8793182
		c-0.6623993-0.7370033-0.6338043-0.9486046,0.3106079-1.3480034c1.4760132-0.6241989,2.9835815-0.4812012,4.4710083-0.0619011
		C262.3983154,63.554081,263.659729,63.9896812,265.0501099,64.430481z"/>
	<path fill="#FFFFFF" d="M302.0254211,88.6124802c-5.710907-0.2477951-11.8136902-0.415596-17.9006958-0.8210983
		c-2.7220154-0.1812973-5.4208984-0.793602-8.1138-1.2978973c-1.7713928-0.3317032-3.5152893-0.8125992-5.267395-1.2435989
		c-0.3769226-0.09272-0.7509155-0.2267151-1.100708-0.3949051c-1.0429993-0.5014954-1.6376038-1.2791977-1.6520996-2.5046005
		c-0.0299072-2.5172119,0.2138977-4.989296,0.8131104-7.4419937c0.2767029-1.1325073,0.3161011-2.3242188,0.4442749-3.4911041
		c0.0508118-0.4621124,0.2359009-0.7297974,0.7172241-0.8621979c0.6027832-0.165802,1.1756897-0.4389191,1.7638855-0.6592026
		c0.1156006-0.0432968,0.2444153-0.0888977,0.3633118-0.0802002c1.710907,0.1258011,3.4196777,0.344902,5.1318054,0.3719025
		c2.1121826,0.0333023,4.226593-0.1072998,6.3406067-0.132103c0.3566895-0.0041962,0.8072815,0.0940018,1.059082,0.3189011
		c1.7438965,1.5578995,3.8392944,2.3537903,6.0679932,2.8290024c0.9067078,0.1932983,1.8623962,0.2803955,2.7875977,0.2372971
		c1.6138-0.0753021,3.0924072,0.4659042,4.6000977,0.8528976c2.8405151,0.7290039,5.3258972,0.0993042,7.5457153-1.7579956
		c0.1287842-0.1077042,0.2727966-0.2581024,0.4208984-0.2722015c1.1510925-0.1099014,1.990387-0.8271027,2.8623962-1.461998
		c0.5488892-0.399704,1.1307983-0.5205994,1.7163086-0.2485046c1.6326904,0.7587051,3.2617798,0.651001,4.8876038,0.047905
		c1.2139893-0.4504013,2.387085-1.0146179,3.610199-1.4360046c0.9145813-0.3152008,1.8692932-0.5986938,2.8255005-0.6861954
		c1.0596008-0.0970993,1.6152954,0.4182968,1.6324768,1.4888c0.0392151,2.4354019,0.0274963,4.8745956-0.0646057,7.3084946
		c-0.0839844,2.2184067-0.3039856,4.4315033-0.458374,6.6473999c-0.0686035,0.985405-0.4857178,1.6460037-1.4904175,1.9720001
		c-2.940979,0.9541016-5.9163818,1.6985016-8.9898071,2.1277008
		C309.1970215,88.4951706,305.8157349,88.6910858,302.0254211,88.6124802z M316.7793274,72.0016861
		c-0.1900024-0.0113068-0.3900146-0.066803-0.568512-0.0267029c-0.9743958,0.2185974-1.9386902,0.4842987-2.9155884,0.6903
		c-2.6805115,0.5652008-5.0429993,1.8281021-7.2637939,3.3613968c-1.9408264,1.340004-3.9733276,1.7878036-6.2262268,0.9732056
		c-0.7726746-0.2793045-1.5424805-0.566803-2.3136902-0.850502c1.1667175,1.2529984,2.5488892,2.1275024,4.2498169,2.3021011
		c1.9350891,0.1986847,3.6924744-0.4664001,5.3237915-1.4272003c1.1907959-0.7012024,2.3072815-1.5277023,3.4645996-2.286705
		c1.3662109-0.8960953,2.851593-1.5329971,4.4086914-2.0190964c0.6311035-0.1970978,1.2434082-0.4544983,1.8643188-0.6845016
		c0.8175964-0.1260986,1.6352844-0.2521973,2.4529724-0.3782959c-0.0148926-0.0758057-0.0297852-0.1516037-0.0446777-0.2274017
		C318.4005127,71.6193848,317.5899353,71.810585,316.7793274,72.0016861z M272.1577148,71.3810806
		c2.4745178,1.0396042,4.8450012,1.9315033,5.9753113,4.4559021
		C277.7950134,72.7325821,275.0386353,71.6240845,272.1577148,71.3810806z"/>
	<path fill="#FFFFFF" d="M340.9186096,55.4042816c1.055603,2.0707016,1.3753967,4.1008873,0.6650085,6.176403
		c-0.2416992,0.7061996-0.7407837,1.4650993-1.3428955,1.8792c-1.4279175,0.9818954-1.9886169,2.358284-2.0730896,3.9431992
		c-0.1200256,2.2527008-1.6339111,3.0907974-3.4458008,3.7036972c-1.2187195,0.4123001-2.440918,0.8143005-3.6419983,1.214386
		c0.1998901-0.5255814,0.7321777-0.8512878,1.2887878-1.0975876c0.7539978-0.3334961,1.5527039-0.5654984,2.3096924-0.8929977
		c0.3154907-0.1364136,0.572998-0.4065018,0.7893982-0.7246017c-0.9328918,0.1656036-1.8659058,0.331192-2.9324951,0.5205994
		c1.2737122-1.6107941,2.8955078-2.3832932,4.6976013-2.8632965c0.0003052-0.0588989,0.0004883-0.117897,0.0007935-0.1768036
		c-0.7315063-0.0404968-1.4628906-0.0808945-2.2385864-0.1237946c0.2770996-1.2552032,0.9961853-2.3256989,1.9073792-3.3088036
		c0.9217224-0.9944,1.8962097-1.9635963,2.663208-3.0714989C340.5897217,59.1032829,340.9287109,57.3688812,340.9186096,55.4042816z
		"/>
	<path d="M275.8534241,50.1084824c0.0234985-0.1254997,0.0499878-0.2505989,0.0698853-0.3765984
		c0.1843262-1.1650009-0.3470764-1.8647995-1.5117798-1.9583015c-1.8414001-0.1478004-3.3228149,0.6609993-4.6805115,1.7890015
		c-0.240387,0.1997986-0.4916077,0.3865852-0.7584839,0.5506973c1.3309021-1.9831123,3.1425781-3.2705994,5.490387-3.7416992
		c1.1697998-0.2347984,2.362915-0.355999,3.5288086-0.6064148c1.4585876-0.3131828,2.6604004-1.0866852,3.6680908-2.1956825
		c2.0913086-2.3015022,5.9444885-2.7098007,8.4606934-1.6561012c1.8182983,0.7613983,3.5906067,1.6324997,5.4070129,2.3986015
		c2.5238037,1.0644989,5.1307983,1.5654984,7.8963013,1.2115974c2.7732849-0.3549995,5.504303,0.0625,8.1340027,0.6795845
		c-1.3388977-0.0683823-2.7445984-0.1602821-4.151825-0.2066841c-1.4214783-0.0467987-2.8129883,0.1272011-4.2991943,0.8171997
		c1.1716003,0.3727989,2.2245178,0.6593018,3.2400208,1.0443993c1.0202942,0.387001,2.0621033,0.7854996,2.6775818,1.8125
		c-1.798584-1.485199-4.0198059-1.4482002-6.1428833-1.7152977c-2.6785889-0.3371162-5.3547058-0.7056007-7.9085999-1.5972023
		c-1.6316223-0.5695992-3.2169189-1.2915993-4.7772217-2.040699c-1.8707886-0.8982124-3.4396973-0.018898-4.602478,1.3195
		c-0.7537231,0.8674011-1.538208,1.6945-2.5644226,2.2465019c-0.908783,0.4888992-1.8502808,0.380497-2.7955933,0.1311989
		c-0.5043945-0.1330986-1.0021973-0.297802-1.5126038-0.4000015c-0.9595032-0.1921005-1.9462891,0.3922997-2.282196,1.3075027
		c-0.1491089,0.4060822-0.3154907,0.8058968-0.473999,1.2085991
		C275.9274292,50.1232834,275.8904114,50.1158829,275.8534241,50.1084824z"/>
	<path d="M293.1261292,53.3733826c-0.307312,0.7616005-0.5892944,1.5345993-0.9277039,2.2821007
		c-0.5278931,1.1661987-0.646698,2.3843002-0.5505981,3.6386871c0.0795898,1.0407143,0.6427917,1.8549995,1.1817932,2.683712
		c0.5606995-0.6520004,1.0739136-1.2486,1.5870972-1.8452988c0.0729065,0.0380974,0.145813,0.0761986,0.218811,0.1142998
		c-0.8676147,2.3857994-0.5386047,4.6809959,0.4960938,6.8982887c1.0169067,2.1789093,2.5766907,3.8613129,4.7369995,4.9689102
		c-2.4960022-0.2765961-4.7163086-1.0968018-6.3476868-3.2413025c-0.0857239,0.2801056-0.1605225,0.5345993-0.2413025,0.7872009
		c-0.3109131,0.9711914-1.1349182,1.2420044-1.8675232,0.5243988c-0.5028992-0.4926987-0.9702759-1.0907974-1.2496948-1.7307968
		c-1.5155945-3.4717026-1.8439941-7.0574989-0.6860046-10.6940994c0.4309082-1.3530006,1.2868042-2.4956017,2.3643188-3.4440994
		c0.4008789-0.3529015,0.815979-0.6897011,1.2247009-1.033802C293.0856323,53.3121681,293.105835,53.3427849,293.1261292,53.3733826
		z"/>
	<path d="M288.7817078,70.7705841c-2.7224731-1.4440994-3.9983826-3.7044144-4.6977844-6.344101
		c-0.678009-2.5585022-1.9093018-4.7299004-4.0405884-6.3554001c-0.6158142-0.4696999-1.2113037-0.975914-1.7541199-1.5265999
		c-0.2393799-0.2429008-0.3939819-0.6253128-0.4591064-0.9686012c-0.0666809-0.3518982-0.0138855-0.7399979,0.0502014-1.1008987
		c0.379303-2.1352997,0.385498-2.134201-0.5630798-4.0567017c1.0704041,0.0955009,1.8981018,0.6947021,2.7103882,1.2400017
		c1.1520996,0.7734985,2.039093,1.8326988,2.7778931,3.0141983c0.8803101,1.4078026,1.3302002,2.9588013,1.5392151,4.5842018
		c0.1914063,1.4887009,0.3236084,2.9848976,0.4979858,4.4758987c0.079895,0.683197,0.3625183,1.2266998,1.0574036,1.5112
		c1.0758057,0.4404984,1.6448975,1.2034988,1.7318115,2.4290009c0.053009,0.745903,0.4421082,1.4707031,0.7003784,2.1977005
		C288.4229431,70.1255798,288.5735168,70.3592834,288.7817078,70.7705841z"/>
	<path d="M334.2550049,55.1071701c-0.5827942-1.0574875-1.5147705-1.4365883-2.4873962-1.7598877
		c-0.653595-0.2173004-1.2643738-0.4091988-1.5385742-1.213398c-0.1233215-0.3616028-0.6860046-0.633503-1.1052246-0.8207169
		c-0.7512817-0.3354836-1.5500793-0.5625839-2.3190918-0.8607826c-0.6166992-0.2391014-0.9594116-0.8415031-0.8562927-1.512001
		c0.0758972-0.4935989,0.2161865-0.976902,0.3148804-1.4673996c0.2924194-1.4524002-0.2258911-2.4263992-1.5441895-3.0718994
		c-0.3974915-0.194603-0.8114014-0.4834023-1.0559082-0.8400002c-0.9310913-1.3586998-2.2940979-1.9081001-3.9375-2.2186012
		c1.0626221-0.3781013,2.0258179-0.3681984,3.0059204-0.1374016c1.5503845,0.3652,2.8447876,1.1584015,3.8650818,2.368
		c1.2538147,1.4864998,2.424408,3.0456009,3.7216187,4.4920883c0.6358948,0.7091141,1.4108887,1.352314,2.2399902,1.8159142
		c1.291687,0.7223969,1.9891968,1.8479004,1.8450928,3.4287987C334.352417,53.8690834,334.31073,54.4290848,334.2550049,55.1071701z
		"/>
	<path d="M265.6978149,60.7441673c-0.5654907-0.3978844-1.1199951-0.8124847-1.6986084-1.1901855
		c-1.3335876-0.8703995-2.793396-1.3223-4.392395-1.4410973c-0.6431885-0.047802-1.2756042-0.3768005-1.8856812-0.6407166
		c-0.1569214-0.0678864-0.2929993-0.3783836-0.2835999-0.5697861c0.0065002-0.1320992,0.269104-0.338398,0.4358826-0.358799
		c0.4226074-0.0516014,0.8557129-0.0171013,1.2960205-0.0171013c-0.4214172-0.4403992-0.8768005-0.880497-1.2834167-1.3619003
		c-0.1341858-0.1588974-0.1419983-0.4244118-0.207489-0.6411972c0.2201843-0.0548019,0.474884-0.209301,0.6546021-0.1471024
		c0.7878113,0.2725029,1.6348877,0.4873009,2.3121948,0.9434013c1.8348999,1.2352982,3.3546143,2.8193016,4.6200867,4.6395988
		c0.0868225,0.1248856,0.1752014,0.2488022,0.2647095,0.3718872c0.0820923,0.112812,0.1665039,0.2239151,0.2499084,0.3357124
		C265.7526245,60.6925812,265.7252197,60.7183838,265.6978149,60.7441673z"/>
	<path d="M265.0501099,64.430481c-1.3903809-0.4407997-2.6517944-0.8764-3.9341736-1.2378998
		c-1.4874268-0.4193001-2.9949951-0.5622978-4.4710083,0.0619011c-0.9444122,0.3993988-0.9730072,0.6110001-0.3106079,1.3480034
		c-0.4286957-0.289505-0.8890991-0.5425034-1.2767944-0.8793182c-0.3648071-0.3168831-0.2404022-0.7317848,0.1284027-0.923584
		c0.6237946-0.324501,1.2784882-0.6753006,1.957901-0.788414c1.1864014-0.1974869,2.362793,0.0113144,3.5213928,0.3857117
		C262.1735229,62.8842812,263.6200256,63.4798813,265.0501099,64.430481z"/>
	<path d="M316.8027344,72.0340805c-0.6209106,0.2299042-1.2332153,0.4873047-1.8643188,0.6844025
		c-1.5570984,0.4860992-3.0424805,1.1230011-4.4086914,2.0190964c-1.1573181,0.7590027-2.2738037,1.5855026-3.4645996,2.286705
		c-1.6313171,0.9608002-3.3887024,1.625885-5.3237915,1.4272003c-1.7009277-0.1745987-3.0830994-1.0491028-4.2498169-2.3021011
		c0.7712097,0.283699,1.5410156,0.5711975,2.3136902,0.850502c2.2528992,0.8145981,4.2854004,0.3667984,6.2262268-0.9732056
		c2.2207947-1.5332947,4.5832825-2.796196,7.2637939-3.3613968c0.9768982-0.2060013,1.9411926-0.4717026,2.9155884-0.6903
		c0.1784973-0.0401001,0.3785095,0.0153961,0.568512,0.0267029L316.8027344,72.0340805z"/>
	<path d="M272.1577148,71.3810806c2.8809204,0.2430038,5.6372986,1.3515015,5.9753113,4.4559021
		C277.0027161,73.3125839,274.6322327,72.4206848,272.1577148,71.3810806z"/>
	<path d="M316.7793274,72.0016861c0.8106079-0.1911011,1.6211853-0.3823013,2.4317017-0.5734024
		c0.0148926,0.075798,0.0297852,0.1515961,0.0446777,0.2274017c-0.817688,0.1260986-1.635376,0.2521973-2.4529724,0.3782959
		L316.7793274,72.0016861z"/>
</g>
<g>
	<rect x="74.8260574" y="243.0755768" fill="none" width="463.5803223" height="42.1085548"/>
	<path fill="#FFFFFF" d="M77.3393555,266.6239929v-21.8847656c0-0.4570313,0.1640625-0.8496094,0.4921875-1.1777344
		s0.7324219-0.4921875,1.2128906-0.4921875h3.2695313c0.4570313,0,0.8466797,0.1640625,1.1689453,0.4921875
		s0.4833984,0.7207031,0.4833984,1.1777344v7.9101563h12.09375v-7.9101563c0-0.4570313,0.1640625-0.8496094,0.4921875-1.1777344
		s0.7207031-0.4921875,1.1777344-0.4921875h3.2695313c0.4804688,0,0.8818359,0.1640625,1.2041016,0.4921875
		s0.4833984,0.7207031,0.4833984,1.1777344v21.8847656c0,0.4570313-0.1669922,0.8466797-0.5009766,1.1689453
		s-0.7294922,0.4833984-1.1865234,0.4833984h-3.2695313c-0.4570313,0-0.8496094-0.1552734-1.1777344-0.4658203
		s-0.4921875-0.6943359-0.4921875-1.1513672v-9.0351563h-12.09375v9.0351563c0,0.4570313-0.1611328,0.8408203-0.4833984,1.1513672
		s-0.7119141,0.4658203-1.1689453,0.4658203h-3.2695313c-0.4570313,0-0.8554688-0.1611328-1.1953125-0.4833984
		S77.3393555,267.0810242,77.3393555,266.6239929z"/>
	<path fill="#FFFFFF" d="M108.6020508,267.0107117c-1.5527344-1.078125-2.3291016-2.6015625-2.3291016-4.5703125
		s0.7763672-3.4804688,2.3291016-4.5351563s3.5537109-1.5820313,6.0029297-1.5820313h5.8183594
		c0-1.3710938-0.2880859-2.3261719-0.8632813-2.8652344c-0.5756836-0.5390625-1.4858398-0.8085938-2.7304688-0.8085938
		c-1.6328125,0-2.777832,0.3984375-3.4355469,1.1953125c-0.5029297,0.6210938-1.175293,0.9316406-2.0175781,0.9316406h-2.6137695
		c-0.315918,0-0.5756836-0.1025391-0.7807617-0.3076172c-0.2045898-0.2050781-0.3066406-0.4599609-0.3066406-0.7646484
		c0-3.3632813,3.1923828-5.0449219,9.5771484-5.0449219c2.7910156,0,5.0307617,0.6240234,6.7197266,1.8720703
		c1.6884766,1.2480469,2.5332031,3.1787109,2.5332031,5.7919922v10.8808594c0,0.3164063-0.0996094,0.5742188-0.2988281,0.7734375
		s-0.4570313,0.2988281-0.7734375,0.2988281h-3.3925781c-0.3164063,0-0.5742188-0.1025391-0.7734375-0.3076172
		s-0.2988281-0.4599609-0.2988281-0.7646484v-0.5449219c-1.8515625,1.3242188-3.9726563,1.9804688-6.3632813,1.96875
		C112.1557617,268.6278992,110.1547852,268.0888367,108.6020508,267.0107117z M112.3549805,262.4403992
		c0,0.6445313,0.246582,1.171875,0.7397461,1.5820313c0.4936523,0.4101563,1.1923828,0.6152344,2.0961914,0.6152344
		c1.8085938,0,3.5527344-0.5273438,5.2324219-1.5820313v-2.7421875h-5.4082031
		c-0.8222656,0-1.4711914,0.1992188-1.9467773,0.5976563S112.3549805,261.8193054,112.3549805,262.4403992z"/>
	<path fill="#FFFFFF" d="M130.8295898,267.204071v-17.1035156c0-0.3164063,0.1025391-0.5771484,0.3076172-0.7822266
		s0.4599609-0.3076172,0.7646484-0.3076172h3.9375c0.3164063,0,0.5742188,0.1025391,0.7734375,0.3076172
		s0.2988281,0.4658203,0.2988281,0.7822266v13.921875h7.4882813v-13.921875c0-0.3164063,0.1025391-0.5771484,0.3076172-0.7822266
		s0.4599609-0.3076172,0.7646484-0.3076172h3.9375c0.3164063,0,0.5742188,0.1025391,0.7734375,0.3076172
		s0.2988281,0.4658203,0.2988281,0.7822266v13.921875h1.7226563c0.3164063,0,0.5771484,0.1025391,0.7822266,0.3076172
		s0.3076172,0.4658203,0.3076172,0.7822266v2.0917969c0,0.3164063-0.1025391,0.5742188-0.3076172,0.7734375
		s-0.4658203,0.2988281-0.7822266,0.2988281h-20.3027344c-0.3164063,0-0.5742188-0.0996094-0.7734375-0.2988281
		S130.8295898,267.5204773,130.8295898,267.204071z"/>
	<path fill="#FFFFFF" d="M155.8081055,267.204071v-17.1035156c0-0.3164063,0.1069336-0.5771484,0.3203125-0.7822266
		c0.2138672-0.2050781,0.4794922-0.3076172,0.7973633-0.3076172h3.8286133c0.3295898,0,0.6015625,0.1025391,0.8154297,0.3076172
		c0.2133789,0.2050781,0.3203125,0.4658203,0.3203125,0.7822266v11.5488281l6.2871094-11.3730469
		c0.1904297-0.3632813,0.4819336-0.6650391,0.875-0.9052734s0.7739258-0.3603516,1.1430664-0.3603516h5.0014648
		c0.3212891,0,0.5864258,0.1025391,0.7949219,0.3076172c0.2080078,0.2050781,0.3125,0.4658203,0.3125,0.7822266v17.1035156
		c0,0.3164063-0.1069336,0.5742188-0.3203125,0.7734375c-0.2138672,0.1992188-0.4858398,0.2988281-0.8154297,0.2988281h-3.8286133
		c-0.3300781,0-0.5986328-0.1025391-0.8061523-0.3076172s-0.3115234-0.4599609-0.3115234-0.7646484v-11.53125l-6.2871094,11.3378906
		c-0.190918,0.3398438-0.4824219,0.6357422-0.875,0.8876953c-0.3930664,0.2519531-0.7739258,0.3779297-1.1430664,0.3779297
		h-5.0195313c-0.3212891,0-0.5834961-0.0996094-0.7856445-0.2988281
		C155.9091797,267.7782898,155.8081055,267.5204773,155.8081055,267.204071z"/>
	<path fill="#FFFFFF" d="M181.7807617,266.0966492c-1.8232422-1.6875-2.734375-4.1748047-2.734375-7.4619141
		s0.9111328-5.7714844,2.734375-7.453125c1.8222656-1.6816406,4.4501953-2.5224609,7.8837891-2.5224609
		c3.4326172,0,6.0634766,0.8408203,7.8916016,2.5224609s2.7421875,4.1660156,2.7421875,7.453125
		s-0.9140625,5.7744141-2.7421875,7.4619141s-4.4589844,2.53125-7.8916016,2.53125
		C186.230957,268.6278992,183.6030273,267.7841492,181.7807617,266.0966492z M186.2202148,254.0732117
		c-0.7280273,0.9492188-1.0917969,2.4667969-1.0917969,4.5527344s0.3637695,3.609375,1.0917969,4.5703125
		s1.8754883,1.4414063,3.4428711,1.4414063c1.5678711,0,2.7182617-0.4804688,3.4526367-1.4414063
		c0.7333984-0.9609375,1.1005859-2.484375,1.1005859-4.5703125s-0.3671875-3.6035156-1.1005859-4.5527344
		c-0.734375-0.9492188-1.8847656-1.4238281-3.4526367-1.4238281
		C188.0957031,252.6493835,186.9482422,253.1239929,186.2202148,254.0732117z"/>
	<path fill="#FFFFFF" d="M203.5327148,267.204071v-17.1035156c0-0.3164063,0.1025391-0.5771484,0.3076172-0.7822266
		s0.4599609-0.3076172,0.7646484-0.3076172h3.9375c0.3164063,0,0.5742188,0.1025391,0.7734375,0.3076172
		s0.2988281,0.4658203,0.2988281,0.7822266v6.2929688h7.6992188v-6.2929688c0-0.3164063,0.1025391-0.5771484,0.3076172-0.7822266
		s0.4658203-0.3076172,0.7822266-0.3076172h3.9199219c0.3164063,0,0.5742188,0.1025391,0.7734375,0.3076172
		s0.2988281,0.4658203,0.2988281,0.7822266v17.1035156c0,0.3164063-0.0996094,0.5742188-0.2988281,0.7734375
		s-0.4570313,0.2988281-0.7734375,0.2988281h-3.9199219c-0.3164063,0-0.5771484-0.1025391-0.7822266-0.3076172
		s-0.3076172-0.4599609-0.3076172-0.7646484v-6.5566406h-7.6992188v6.5566406c0,0.3164063-0.1025391,0.5742188-0.3076172,0.7734375
		s-0.4599609,0.2988281-0.7646484,0.2988281h-3.9375c-0.3164063,0-0.5742188-0.0996094-0.7734375-0.2988281
		S203.5327148,267.5204773,203.5327148,267.204071z"/>
	<path fill="#FFFFFF" d="M228.9594727,267.0107117c-1.5527344-1.078125-2.3291016-2.6015625-2.3291016-4.5703125
		s0.7763672-3.4804688,2.3291016-4.5351563s3.5537109-1.5820313,6.0029297-1.5820313h5.8183594
		c0-1.3710938-0.2880859-2.3261719-0.8632813-2.8652344c-0.5756836-0.5390625-1.4858398-0.8085938-2.7304688-0.8085938
		c-1.6328125,0-2.777832,0.3984375-3.4355469,1.1953125c-0.5029297,0.6210938-1.175293,0.9316406-2.0175781,0.9316406h-2.6137695
		c-0.315918,0-0.5756836-0.1025391-0.7807617-0.3076172c-0.2045898-0.2050781-0.3066406-0.4599609-0.3066406-0.7646484
		c0-3.3632813,3.1923828-5.0449219,9.5771484-5.0449219c2.7910156,0,5.0307617,0.6240234,6.7197266,1.8720703
		c1.6884766,1.2480469,2.5332031,3.1787109,2.5332031,5.7919922v10.8808594c0,0.3164063-0.0996094,0.5742188-0.2988281,0.7734375
		s-0.4570313,0.2988281-0.7734375,0.2988281h-3.3925781c-0.3164063,0-0.5742188-0.1025391-0.7734375-0.3076172
		s-0.2988281-0.4599609-0.2988281-0.7646484v-0.5449219c-1.8515625,1.3242188-3.9726563,1.9804688-6.3632813,1.96875
		C232.5131836,268.6278992,230.512207,268.0888367,228.9594727,267.0107117z M232.7124023,262.4403992
		c0,0.6445313,0.246582,1.171875,0.7397461,1.5820313c0.4936523,0.4101563,1.1923828,0.6152344,2.0961914,0.6152344
		c1.8085938,0,3.5527344-0.5273438,5.2324219-1.5820313v-2.7421875h-5.4082031
		c-0.8222656,0-1.4711914,0.1992188-1.9467773,0.5976563S232.7124023,261.8193054,232.7124023,262.4403992z"/>
	<path fill="#FFFFFF" d="M249.4291992,267.1161804l3.1640625-12.7792969
		c0.890625-3.5507813,3.8320313-5.3261719,8.8242188-5.3261719h8.3144531c0.3164063,0,0.5742188,0.1025391,0.7734375,0.3076172
		s0.2988281,0.4658203,0.2988281,0.7822266v17.1035156c0,0.3164063-0.1025391,0.5742188-0.3076172,0.7734375
		s-0.4599609,0.2988281-0.7646484,0.2988281h-3.9375c-0.3164063,0-0.5742188-0.1025391-0.7734375-0.3076172
		s-0.2988281-0.4599609-0.2988281-0.7646484v-13.9394531h-3.3061523c-1.6293945,0-2.6669922,0.8613281-3.1123047,2.5830078
		l-2.7553711,11.1289063c-0.09375,0.3867188-0.2993164,0.6992188-0.6157227,0.9394531s-0.6503906,0.3603516-1.0019531,0.3603516
		h-3.6044922c-0.3164063,0-0.5629883-0.1113281-0.7387695-0.3339844c-0.1289063-0.1640625-0.1933594-0.3515625-0.1933594-0.5625
		C249.394043,267.297821,249.4057617,267.2099304,249.4291992,267.1161804z"/>
	<path fill="#FFFFFF" d="M276.7280273,266.1005554c-1.8046875-1.6855469-2.7070313-4.1494141-2.7070313-7.3916016
		c0-3.2431641,0.9082031-5.7285156,2.7246094-7.4570313s4.3300781-2.5927734,7.5410156-2.5927734
		c3.234375,0,5.7539063,0.8603516,7.5585938,2.5820313s2.7070313,4.1904297,2.7070313,7.4052734v1.0263672
		c0,0.3232422-0.1025391,0.5908203-0.3076172,0.8007813s-0.4658203,0.3144531-0.7822266,0.3144531h-13.2363281
		c0.1171875,1.34375,0.5302734,2.3212891,1.2392578,2.9326172s1.7958984,0.9169922,3.2607422,0.9169922
		c1.6523438,0,2.8007813-0.3925781,3.4453125-1.1777344c0.5039063-0.6210938,1.1777344-0.9375,2.0214844-0.9492188h2.6191406
		c0.3164063,0,0.5771484,0.109375,0.7822266,0.328125c0.2050781,0.2177734,0.3076172,0.4951172,0.3076172,0.8320313
		c0,3.3164063-3.2050781,4.96875-9.6152344,4.9570313C281.0522461,268.6278992,278.5327148,267.7851257,276.7280273,266.1005554z
		 M280.190918,256.797821h8.1738281c-0.1171875-2.765625-1.4736328-4.1484375-4.0693359-4.1484375
		S280.331543,254.032196,280.190918,256.797821z"/>
	<path fill="#FFFFFF" d="M297.7866211,267.204071v-17.1035156c0-0.3164063,0.1025391-0.5771484,0.3081055-0.7822266
		c0.2050781-0.2050781,0.4599609-0.3076172,0.7646484-0.3076172h3.9375c0.3164063,0,0.5742188,0.1025391,0.7734375,0.3076172
		s0.2988281,0.4658203,0.2988281,0.7822266v6.2929688h7.6992188v-6.2929688c0-0.3164063,0.1025391-0.5771484,0.3076172-0.7822266
		s0.4658203-0.3076172,0.7822266-0.3076172h3.9199219c0.3164063,0,0.5742188,0.1025391,0.7734375,0.3076172
		s0.2988281,0.4658203,0.2988281,0.7822266v17.1035156c0,0.3164063-0.0996094,0.5742188-0.2988281,0.7734375
		s-0.4570313,0.2988281-0.7734375,0.2988281h-3.9199219c-0.3164063,0-0.5771484-0.1025391-0.7822266-0.3076172
		s-0.3076172-0.4599609-0.3076172-0.7646484v-6.5566406h-7.6992188v6.5566406c0,0.3164063-0.1025391,0.5742188-0.3076172,0.7734375
		s-0.4599609,0.2988281-0.7646484,0.2988281h-3.9375c-0.3164063,0-0.5742188-0.0996094-0.7734375-0.2988281
		C297.8862305,267.7782898,297.7866211,267.5204773,297.7866211,267.204071z"/>
	<path fill="#FFFFFF" d="M334.9121094,266.6239929v-21.8847656c0-0.4570313,0.1582031-0.8496094,0.4746094-1.1777344
		s0.703125-0.4921875,1.1601563-0.4921875h13.4121094c7.078125,0,10.6201172,3.2666016,10.6259766,9.7998047
		s-3.5361328,9.7998047-10.6259766,9.7998047h-8.4199219v3.9550781c0,0.4570313-0.1611328,0.8466797-0.4833984,1.1689453
		s-0.7119141,0.4833984-1.1689453,0.4833984h-3.3046875c-0.4570313,0-0.8496094-0.1611328-1.1777344-0.4833984
		S334.9121094,267.0810242,334.9121094,266.6239929z M341.5390625,257.6943054h6.4160156
		c1.96875,0,3.4628906-0.3310547,4.4824219-0.9931641s1.5292969-1.9394531,1.5292969-3.8320313
		s-0.5097656-3.1699219-1.5292969-3.8320313s-2.5136719-0.9931641-4.4824219-0.9931641h-6.4160156V257.6943054z"/>
	<path fill="#FFFFFF" d="M365.0761719,266.1005554c-1.8046875-1.6855469-2.7070313-4.1494141-2.7070313-7.3916016
		c0-3.2431641,0.9082031-5.7285156,2.7246094-7.4570313s4.3300781-2.5927734,7.5410156-2.5927734
		c3.234375,0,5.7539063,0.8603516,7.5585938,2.5820313s2.7070313,4.1904297,2.7070313,7.4052734v1.0263672
		c0,0.3232422-0.1025391,0.5908203-0.3076172,0.8007813s-0.4658203,0.3144531-0.7822266,0.3144531h-13.2363281
		c0.1171875,1.34375,0.5302734,2.3212891,1.2392578,2.9326172s1.7958984,0.9169922,3.2607422,0.9169922
		c1.6523438,0,2.8007813-0.3925781,3.4453125-1.1777344c0.5039063-0.6210938,1.1777344-0.9375,2.0214844-0.9492188h2.6191406
		c0.3164063,0,0.5771484,0.109375,0.7822266,0.328125c0.2050781,0.2177734,0.3076172,0.4951172,0.3076172,0.8320313
		c0,3.3164063-3.2050781,4.96875-9.6152344,4.9570313C369.4003906,268.6278992,366.8808594,267.7851257,365.0761719,266.1005554z
		 M368.5390625,256.797821h8.1738281c-0.1171875-2.765625-1.4736328-4.1484375-4.0693359-4.1484375
		S368.6796875,254.032196,368.5390625,256.797821z"/>
	<path fill="#FFFFFF" d="M385.0449219,258.6523132c0-3.2900391,0.9082031-5.7783203,2.7246094-7.4638672
		c1.8164063-1.6865234,4.3886719-2.5292969,7.7167969-2.5292969c3.140625,0,5.5839844,0.515625,7.3300781,1.5458984
		c1.7460938,1.03125,2.6191406,2.5537109,2.6191406,4.5683594c0,0.3173828-0.1044922,0.5761719-0.3125,0.7753906
		c-0.2080078,0.2001953-0.4716797,0.2998047-0.7919922,0.2998047h-2.6552734c-0.8085938,0-1.4912109-0.4277344-2.0498047-1.2832031
		c-0.7001953-1.1015625-1.9775391-1.6523438-3.8310547-1.6523438c-1.6982422,0-2.9013672,0.4472656-3.6083984,1.3427734
		s-1.0595703,2.3603516-1.0595703,4.3964844c0,2.0126953,0.3652344,3.4697266,1.0957031,4.3701172
		c0.7304688,0.9013672,1.9804688,1.3515625,3.75,1.3515625c1.8525391,0,3.1298828-0.5478516,3.8300781-1.6425781
		c0.5585938-0.8613281,1.2412109-1.2929688,2.0488281-1.2929688h2.6552734c0.3203125,0,0.5849609,0.1015625,0.7929688,0.3037109
		c0.2070313,0.2021484,0.3115234,0.453125,0.3115234,0.7539063c0,2.0205078-0.8701172,3.5478516-2.6103516,4.5810547
		c-1.7402344,1.0341797-4.1806641,1.5507813-7.3212891,1.5507813c-3.4335938,0-6.0644531-0.8447266-7.8925781-2.5332031
		C385.9589844,264.4052429,385.0449219,261.9247742,385.0449219,258.6523132z"/>
	<path fill="#FFFFFF" d="M406.6484375,252.1923523v-2.0917969c0-0.3164063,0.1025391-0.5771484,0.3076172-0.7822266
		s0.4658203-0.3076172,0.7832031-0.3076172h17.3300781c0.3164063,0,0.5742188,0.1025391,0.7734375,0.3076172
		c0.2001953,0.2050781,0.2998047,0.4658203,0.2998047,0.7822266v2.0917969c0,0.3164063-0.1005859,0.5742188-0.2998047,0.7734375
		c-0.2001953,0.1992188-0.4580078,0.2988281-0.7753906,0.2988281h-5.6220703v13.9394531
		c0,0.3164063-0.1025391,0.5742188-0.3066406,0.7734375c-0.2050781,0.1992188-0.4648438,0.2988281-0.7802734,0.2988281h-3.9082031
		c-0.3154297,0-0.5761719-0.1025391-0.7802734-0.3076172c-0.2050781-0.2050781-0.3066406-0.4599609-0.3066406-0.7646484v-13.9394531
		h-5.6220703c-0.3173828,0-0.5791016-0.0996094-0.7841797-0.2988281
		C406.7509766,252.766571,406.6484375,252.5087585,406.6484375,252.1923523z"/>
	<path fill="#FFFFFF" d="M429.5800781,266.0966492c-1.8232422-1.6875-2.734375-4.1748047-2.734375-7.4619141
		s0.9111328-5.7714844,2.734375-7.453125c1.8222656-1.6816406,4.4501953-2.5224609,7.8837891-2.5224609
		c3.4326172,0,6.0634766,0.8408203,7.8916016,2.5224609s2.7421875,4.1660156,2.7421875,7.453125
		s-0.9140625,5.7744141-2.7421875,7.4619141s-4.4589844,2.53125-7.8916016,2.53125
		C434.0302734,268.6278992,431.4023438,267.7841492,429.5800781,266.0966492z M434.0195313,254.0732117
		c-0.7285156,0.9492188-1.0917969,2.4667969-1.0917969,4.5527344s0.3632813,3.609375,1.0917969,4.5703125
		c0.7275391,0.9609375,1.875,1.4414063,3.4423828,1.4414063c1.5683594,0,2.71875-0.4804688,3.453125-1.4414063
		c0.7333984-0.9609375,1.1005859-2.484375,1.1005859-4.5703125s-0.3671875-3.6035156-1.1005859-4.5527344
		c-0.734375-0.9492188-1.8847656-1.4238281-3.453125-1.4238281
		C435.8945313,252.6493835,434.7470703,253.1239929,434.0195313,254.0732117z"/>
	<path fill="#FFFFFF" d="M451.3320313,273.1278992v-23.0273438c0-0.3164063,0.1025391-0.5771484,0.3076172-0.7822266
		s0.4599609-0.3076172,0.7646484-0.3076172h3.3925781c0.3164063,0,0.5742188,0.1025391,0.7734375,0.3076172
		s0.2988281,0.4658203,0.2988281,0.7822266v0.5273438c1.8291016-1.3242188,3.8564453-1.9804688,6.0800781-1.96875
		c2.6064453,0,4.7226563,0.8632813,6.3496094,2.5908203c1.6269531,1.7265625,2.4414063,4.1826172,2.4414063,7.3671875
		c0,3.2373047-0.8339844,5.7148438-2.5019531,7.4335938c-1.6669922,1.7177734-3.9150391,2.5771484-6.7441406,2.5771484
		c-1.4882813,0-3.1816406-0.2998047-5.0800781-0.9003906v5.3994141c0,0.3164063-0.1025391,0.578125-0.3076172,0.7832031
		s-0.4599609,0.3076172-0.7646484,0.3076172h-3.9375c-0.3164063,0-0.5742188-0.1025391-0.7734375-0.3076172
		S451.3320313,273.4443054,451.3320313,273.1278992z M457.4140625,263.6542664
		c1.5117188,0.4794922,2.7832031,0.7197266,3.8144531,0.7197266c1.6054688,0,2.7451172-0.4560547,3.4189453-1.3691406
		c0.6738281-0.9121094,1.0107422-2.375,1.0107422-4.3876953c0-1.9892578-0.3193359-3.4365234-0.9580078-4.34375
		s-1.6728516-1.3603516-3.1025391-1.3603516c-1.1015625,0-2.4960938,0.5263672-4.1835938,1.5791016V263.6542664z"/>
	<path fill="#FFFFFF" d="M476.3896484,267.0107117c-1.5527344-1.078125-2.3291016-2.6015625-2.3291016-4.5703125
		s0.7763672-3.4804688,2.3291016-4.5351563s3.5537109-1.5820313,6.0029297-1.5820313h5.8183594
		c0-1.3710938-0.2880859-2.3261719-0.8632813-2.8652344c-0.5761719-0.5390625-1.4863281-0.8085938-2.7304688-0.8085938
		c-1.6328125,0-2.7783203,0.3984375-3.4355469,1.1953125c-0.5029297,0.6210938-1.1757813,0.9316406-2.0175781,0.9316406h-2.6142578
		c-0.3154297,0-0.5751953-0.1025391-0.7802734-0.3076172s-0.3066406-0.4599609-0.3066406-0.7646484
		c0-3.3632813,3.1923828-5.0449219,9.5771484-5.0449219c2.7910156,0,5.0302734,0.6240234,6.7197266,1.8720703
		c1.6884766,1.2480469,2.5332031,3.1787109,2.5332031,5.7919922v10.8808594c0,0.3164063-0.0996094,0.5742188-0.2988281,0.7734375
		s-0.4570313,0.2988281-0.7734375,0.2988281h-3.3925781c-0.3164063,0-0.5742188-0.1025391-0.7734375-0.3076172
		s-0.2988281-0.4599609-0.2988281-0.7646484v-0.5449219c-1.8515625,1.3242188-3.9726563,1.9804688-6.3632813,1.96875
		C479.9433594,268.6278992,477.9423828,268.0888367,476.3896484,267.0107117z M480.1425781,262.4403992
		c0,0.6445313,0.2460938,1.171875,0.7392578,1.5820313c0.4941406,0.4101563,1.1923828,0.6152344,2.0966797,0.6152344
		c1.8085938,0,3.5527344-0.5273438,5.2324219-1.5820313v-2.7421875h-5.4082031
		c-0.8222656,0-1.4716797,0.1992188-1.9472656,0.5976563S480.1425781,261.8193054,480.1425781,262.4403992z"/>
	<path fill="#FFFFFF" d="M498.6171875,267.204071v-17.1035156c0-0.3164063,0.1025391-0.5771484,0.3076172-0.7822266
		s0.4599609-0.3076172,0.7646484-0.3076172h3.9375c0.3164063,0,0.5742188,0.1025391,0.7734375,0.3076172
		s0.2988281,0.4658203,0.2988281,0.7822266v6.2929688h7.6992188v-6.2929688c0-0.3164063,0.1025391-0.5771484,0.3076172-0.7822266
		s0.4658203-0.3076172,0.7822266-0.3076172h3.9199219c0.3164063,0,0.5742188,0.1025391,0.7734375,0.3076172
		s0.2988281,0.4658203,0.2988281,0.7822266v17.1035156c0,0.3164063-0.0996094,0.5742188-0.2988281,0.7734375
		s-0.4570313,0.2988281-0.7734375,0.2988281h-3.9199219c-0.3164063,0-0.5771484-0.1025391-0.7822266-0.3076172
		s-0.3076172-0.4599609-0.3076172-0.7646484v-6.5566406h-7.6992188v6.5566406c0,0.3164063-0.1025391,0.5742188-0.3076172,0.7734375
		s-0.4599609,0.2988281-0.7646484,0.2988281h-3.9375c-0.3164063,0-0.5742188-0.0996094-0.7734375-0.2988281
		S498.6171875,267.5204773,498.6171875,267.204071z"/>
</g>
<g>
	<polygon id="XMLID_219_" fill-rule="evenodd" clip-rule="evenodd" fill="#654321" points="167.9364166,134.9369965 
		170.6952209,140.5269012 176.8640137,141.4232941 172.4002075,145.7743988 173.45401,151.918396 167.9364166,149.0175934 
		162.418808,151.918396 163.4726105,145.7743988 159.0088196,141.4232941 165.1776123,140.5269012 	"/>
	<polygon id="XMLID_1_" fill-rule="evenodd" clip-rule="evenodd" fill="#654321" points="195.8640137,134.9369965 
		198.622818,140.5269012 204.791626,141.4232941 200.3278198,145.7743988 201.3816223,151.918396 195.8640137,149.0176086 
		190.3464203,151.918396 191.4002228,145.7743988 186.9364166,141.4232941 193.1052246,140.5269012 	"/>
	<polygon id="XMLID_2_" fill-rule="evenodd" clip-rule="evenodd" fill="#654321" points="224.4002075,134.9369965 
		227.1590118,140.5269012 233.3278198,141.4232941 228.8640137,145.7743988 229.9178162,151.918396 224.4002075,149.0175934 
		218.8826141,151.918396 219.9364166,145.7743988 215.4726105,141.4232941 221.6414185,140.5269012 	"/>
</g>
<g>
	<polygon id="XMLID_12_" fill-rule="evenodd" clip-rule="evenodd" fill="#654321" points="383.8554382,134.9370117 
		386.6142273,140.5269165 392.7830505,141.4233093 388.3192444,145.7744141 389.3730469,151.9184113 383.8554382,149.0176086 
		378.3378296,151.9184113 379.3916321,145.7744141 374.9278259,141.4233093 381.0966492,140.5269165 	"/>
	<polygon id="XMLID_11_" fill-rule="evenodd" clip-rule="evenodd" fill="#654321" points="411.7830505,134.9370117 
		414.5418396,140.5269165 420.7106323,141.4233093 416.2468567,145.7744141 417.3006287,151.9184113 411.7830505,149.0176086 
		406.2654419,151.9184113 407.3192444,145.7744141 402.8554382,141.4233093 409.024231,140.5269165 	"/>
	<polygon id="XMLID_10_" fill-rule="evenodd" clip-rule="evenodd" fill="#654321" points="440.3192444,134.9370117 
		443.0780334,140.5269165 449.2468262,141.4233093 444.7830505,145.7744141 445.8368225,151.9184113 440.3192444,149.0176086 
		434.8016357,151.9184113 435.8554382,145.7744141 431.3916321,141.4233093 437.5604248,140.5269165 	"/>
</g>
</svg>
